<?xml version="1.0" encoding="UTF-8"?>
<svg version="1.1" xmlns="http://www.w3.org/2000/svg" width="301" height="426">
<path d="M0 0 C5.05193836 2.77759829 8.89576799 6.21024611 10.6015625 11.83203125 C11.5778569 18.0630867 10.51592815 22.34581642 6.875 27.4375 C5.32233221 29.25842977 3.75905396 31.07034473 2.1875 32.875 C-1.29389727 37.01131359 -3.43155533 40.05787529 -3.44140625 45.5546875 C-3.1857565 47.62012619 -3.1857565 47.62012619 -1.875 50 C3.61135772 52.86786881 9.00399039 52.19559665 14.86328125 50.6484375 C24.56679987 46.97555499 32.88555969 40.99339953 41.34838867 35.08789062 C49.84459515 29.2057413 57.24305326 24.96460292 67.875 26.4375 C73.68372027 28.07506476 77.39112757 31.34743857 80.7421875 36.30078125 C83.42455289 41.36027735 83.32281494 45.63492473 81.75 51.0625 C79.75774206 56.30576066 77.25044581 60.27617094 72.0625 62.8125 C71.340625 63.01875 70.61875 63.225 69.875 63.4375 C69.875 64.0975 69.875 64.7575 69.875 65.4375 C70.431875 65.664375 70.98875 65.89125 71.5625 66.125 C76.16668583 68.73818655 79.6920461 72.63500142 81.875 77.4375 C83.42973872 83.66841442 83.07273088 88.81687303 79.875 94.4375 C75.85691491 99.19575866 71.87880779 102.2896829 65.6875 103.3125 C53.24587536 104.23334393 41.88044559 95.93304653 32.0625 89.1875 C25.31888535 84.61682785 19.163854 81.33231947 10.875 82.4375 C7.82639887 83.64252816 7.82639887 83.64252816 5.875 86.4375 C4.8872354 89.73694407 4.31138519 93.02457704 3.875 96.4375 C4.40867187 96.57285156 4.94234375 96.70820313 5.4921875 96.84765625 C15.04967123 99.60907456 22.59434712 104.63641187 27.7578125 113.2421875 C31.23063511 120.06640535 31.82918537 126.59278169 29.8125 133.9375 C26.60659106 142.67953873 18.84396983 147.347671 10.875 151.4375 C8.22848404 152.57477503 5.61120315 153.52543228 2.875 154.4375 C1.98070324 159.99000187 1.59159786 165.47427823 1.33984375 171.08984375 C1.29686661 171.98997696 1.25388947 172.89011017 1.20960999 173.81752014 C1.07413314 176.669877 0.94324613 179.52242278 0.8125 182.375 C0.72100711 184.31837371 0.62921335 186.26173328 0.53710938 188.20507812 C0.31292495 192.94906224 0.09285439 197.69322115 -0.125 202.4375 C0.8969043 202.83509521 1.91880859 203.23269043 2.97167969 203.64233398 C4.33016662 204.17669564 5.68856014 204.71129485 7.046875 205.24609375 C7.71831543 205.50660522 8.38975586 205.7671167 9.08154297 206.03552246 C15.4966409 208.57140519 21.42888988 211.45630329 25.875 216.875 C27.70895435 221.57450803 28.25545776 225.01712435 26.9375 229.9375 C22.04016914 239.64548329 9.96681008 245.02006545 0.11328125 248.37890625 C-2.3003785 249.20473694 -4.10975467 249.86560864 -6.125 251.4375 C-7.47864094 254.29191677 -8.34586445 257.00279255 -9.078125 260.07421875 C-9.42359375 260.85410156 -9.7690625 261.63398438 -10.125 262.4375 C-12.734375 263.26953125 -12.734375 263.26953125 -15.125 263.4375 C-16.86771938 261.140279 -18.52411152 258.83883271 -20.125 256.4375 C-24.085 258.4175 -24.085 258.4175 -28.125 260.4375 C-21.85567712 269.13365754 -13.43423376 271.92616477 -3.44604492 274.73852539 C-1.6564562 275.25237618 0.11182066 275.83927844 1.875 276.4375 C2.205 277.0975 2.535 277.7575 2.875 278.4375 C-6.10503992 282.92751996 -21.8891605 279.4457313 -30.9765625 276.63671875 C-37.89383204 274.00197712 -43.01960237 270.65779944 -47.125 264.4375 C-48.4836871 260.0417476 -48.41717746 258.13142147 -46.625 253.875 C-41.28072343 245.79560546 -32.67457183 241.47911577 -24.125 237.4375 C-23.465 237.4375 -22.805 237.4375 -22.125 237.4375 C-22.25777344 236.6640625 -22.39054687 235.890625 -22.52734375 235.09375 C-22.79224609 233.53140625 -22.79224609 233.53140625 -23.0625 231.9375 C-23.32353516 230.40609375 -23.32353516 230.40609375 -23.58984375 228.84375 C-24.18615731 225.04823596 -24.66480008 221.25176959 -25.125 217.4375 C-26.88263672 216.78394531 -26.88263672 216.78394531 -28.67578125 216.1171875 C-44.56802172 210.13219413 -61.21199052 203.70517531 -69.125 187.4375 C-71.20409907 181.20020278 -70.87766996 175.28893444 -68.125 169.3125 C-60.32175199 155.45687126 -44.52809805 147.0706135 -30.125 141.4375 C-29.465 141.4375 -28.805 141.4375 -28.125 141.4375 C-28.29 140.179375 -28.455 138.92125 -28.625 137.625 C-29.23573012 132.2230491 -29.21633564 126.86689662 -29.125 121.4375 C-35.47818847 124.83241686 -41.16453643 128.23432012 -46.375 133.25 C-50.67383382 137.26087366 -53.20428501 139.06158159 -59.125 139.4375 C-63.89280354 138.63891267 -67.1847476 137.3777524 -70.625 133.9375 C-73.17855133 129.68158111 -73.54132906 126.3501829 -73.125 121.4375 C-69.0458374 113.4423413 -61.64345428 108.78991326 -53.875 104.8125 C-53.13354736 104.42715088 -52.39209473 104.04180176 -51.62817383 103.64477539 C-37.5153942 96.4375 -37.5153942 96.4375 -30.125 96.4375 C-30.38120684 94.8309324 -30.65555871 93.2272517 -30.9375 91.625 C-31.08832031 90.73167969 -31.23914063 89.83835937 -31.39453125 88.91796875 C-32.18973447 86.21767975 -32.95190155 85.17269448 -35.125 83.4375 C-38.22611031 81.88694485 -40.68605327 82.18936462 -44.125 82.4375 C-46.78672861 83.48114786 -49.12752207 84.53542949 -51.625 85.875 C-52.65451782 86.40710083 -52.65451782 86.40710083 -53.70483398 86.94995117 C-59.26498595 89.86767986 -64.6683718 93.04434251 -69.98828125 96.37866211 C-77.27005638 100.906196 -84.76688 104.59728736 -93.5234375 103 C-99.68982755 101.19720158 -103.00467433 98.23935892 -106.875 93.125 C-109.18536889 88.15770689 -109.77895209 83.63417661 -108.125 78.4375 C-105.56160968 72.42065327 -100.70028525 67.97093813 -96.125 63.4375 C-96.82625 63.2725 -97.5275 63.1075 -98.25 62.9375 C-102.88043252 60.52162216 -105.80823965 56.0710207 -108.125 51.4375 C-108.87117236 44.50875668 -108.83076721 38.80567906 -104.625 33.05859375 C-101.14091901 29.2932458 -97.1358747 26.77449699 -91.99609375 26.19921875 C-91.19300781 26.17472656 -90.38992187 26.15023437 -89.5625 26.125 C-88.38494141 26.06892578 -88.38494141 26.06892578 -87.18359375 26.01171875 C-78.21297197 27.26050262 -71.01180041 32.22137203 -63.75 37.3125 C-46.95848587 49.08818717 -46.95848587 49.08818717 -27.125 51.4375 C-24.34935155 50.07987846 -24.34935155 50.07987846 -23.125 47.4375 C-22.46011431 42.81195907 -22.9673792 40.19112154 -25.6796875 36.5 C-26.76997192 35.13252462 -27.87734149 33.77852458 -29 32.4375 C-33.95706012 26.43382162 -37.28443221 21.98131789 -37 13.875 C-35.52827668 8.09322983 -33.02562026 4.80906061 -28.0625 1.625 C-20.28724924 -2.98642511 -8.46262656 -3.39084695 0 0 Z M2.875 120.4375 C2.545 123.7375 2.215 127.0375 1.875 130.4375 C5.90878366 129.92769039 5.90878366 129.92769039 7.125 127.375 C7.3725 126.735625 7.62 126.09625 7.875 125.4375 C6.225 123.7875 4.575 122.1375 2.875 120.4375 Z M-35.5 169.625 C-36.36625 170.20604492 -36.36625 170.20604492 -37.25 170.79882812 C-40.83410046 173.27414865 -43.74473031 175.70841081 -46.125 179.4375 C-44.9692468 182.90475961 -44.41347149 183.15540649 -41.37890625 184.91796875 C-40.62416016 185.35947266 -39.86941406 185.80097656 -39.09179688 186.25585938 C-38.29837891 186.70767578 -37.50496094 187.15949219 -36.6875 187.625 C-35.50317383 188.32012695 -35.50317383 188.32012695 -34.29492188 189.02929688 C-30.44703961 191.51904538 -30.44703961 191.51904538 -26.125 192.4375 C-26.455 183.5275 -26.785 174.6175 -27.125 165.4375 C-30.45716546 165.4375 -32.8459613 167.78061848 -35.5 169.625 Z M-2.125 223.4375 C-2.455 225.0875 -2.785 226.7375 -3.125 228.4375 C-1.145 227.7775 0.835 227.1175 2.875 226.4375 C2.545 225.7775 2.215 225.1175 1.875 224.4375 C-0.14963255 223.78536708 -0.14963255 223.78536708 -2.125 223.4375 Z " fill="#6FCAEE" transform="translate(160.125,128.5625)"/>
<path d="M0 0 C3.91743892 0.08225713 7.83347352 0.19495985 11.75 0.3125 C12.84183594 0.33505859 13.93367188 0.35761719 15.05859375 0.38085938 C23.21991596 0.64646454 31.85576346 1.30137481 39.21386719 5.16137695 C39.80329102 5.43812256 40.39271484 5.71486816 41 6 C41.66 5.67 42.32 5.34 43 5 C51.41834849 10.17412328 56.83628009 15.2956475 60.375 24.625 C61.67407842 31.64002346 61.18300606 37.59988424 58 44 C51.99333379 52.1924253 42.41417457 56.86194181 33 60 C32.10570324 65.55250187 31.71659786 71.03677823 31.46484375 76.65234375 C31.42186661 77.55247696 31.37888947 78.45261017 31.33460999 79.38002014 C31.19913314 82.232377 31.06824613 85.08492278 30.9375 87.9375 C30.84600711 89.88087371 30.75421335 91.82423328 30.66210938 93.76757812 C30.43792495 98.51156224 30.21785439 103.25572115 30 108 C31.53285645 108.59639282 31.53285645 108.59639282 33.09667969 109.20483398 C34.45516662 109.73919564 35.81356014 110.27379485 37.171875 110.80859375 C37.84331543 111.06910522 38.51475586 111.3296167 39.20654297 111.59802246 C45.6216409 114.13390519 51.55388988 117.01880329 56 122.4375 C57.83395435 127.13700803 58.38045776 130.57962435 57.0625 135.5 C52.16516914 145.20798329 40.09181008 150.58256545 30.23828125 153.94140625 C27.8246215 154.76723694 26.01524533 155.42810864 24 157 C22.64635906 159.85441677 21.77913555 162.56529255 21.046875 165.63671875 C20.52867187 166.80654297 20.52867187 166.80654297 20 168 C17.390625 168.83203125 17.390625 168.83203125 15 169 C13.25728062 166.702779 11.60088848 164.40133271 10 162 C6.04 163.98 6.04 163.98 2 166 C8.26932288 174.69615754 16.69076624 177.48866477 26.67895508 180.30102539 C28.4685438 180.81487618 30.23682066 181.40177844 32 182 C32.33 182.66 32.66 183.32 33 184 C24.01996008 188.49001996 8.2358395 185.0082313 -0.8515625 182.19921875 C-7.76883204 179.56447712 -12.89460237 176.22029944 -17 170 C-18.3586871 165.6042476 -18.29217746 163.69392147 -16.5 159.4375 C-11.15572343 151.35810546 -2.54957183 147.04161577 6 143 C6.66 143 7.32 143 8 143 C7.80083984 141.83984375 7.80083984 141.83984375 7.59765625 140.65625 C7.42105469 139.6146875 7.24445313 138.573125 7.0625 137.5 C6.88847656 136.4790625 6.71445313 135.458125 6.53515625 134.40625 C5.93884269 130.61073596 5.46019992 126.81426959 5 123 C3.82824219 122.56429687 2.65648437 122.12859375 1.44921875 121.6796875 C-14.44302172 115.69469413 -31.08699052 109.26767531 -39 93 C-41.07909907 86.76270278 -40.75266996 80.85143444 -38 74.875 C-30.19675199 61.01937126 -14.40309805 52.6331135 0 47 C0.66 47 1.32 47 2 47 C1.835 45.741875 1.67 44.48375 1.5 43.1875 C0.88926988 37.7855491 0.90866436 32.42939662 1 27 C-5.35318847 30.39491686 -11.03953643 33.79682012 -16.25 38.8125 C-20.54883382 42.82337366 -23.07928501 44.62408159 -29 45 C-33.76780354 44.20141267 -37.0597476 42.9402524 -40.5 39.5 C-43.05355133 35.24408111 -43.41632906 31.9126829 -43 27 C-38.9208374 19.0048413 -31.51845428 14.35241326 -23.75 10.375 C-23.00854736 9.98965088 -22.26709473 9.60430176 -21.50317383 9.20727539 C-7.3903942 2 -7.3903942 2 0 2 C0 1.34 0 0.68 0 0 Z M33 26 C32.67 29.3 32.34 32.6 32 36 C36.03378366 35.49019039 36.03378366 35.49019039 37.25 32.9375 C37.4975 32.298125 37.745 31.65875 38 31 C36.35 29.35 34.7 27.7 33 26 Z M-5.375 75.1875 C-6.24125 75.76854492 -6.24125 75.76854492 -7.125 76.36132812 C-10.70910046 78.83664865 -13.61973031 81.27091081 -16 85 C-14.8442468 88.46725961 -14.28847149 88.71790649 -11.25390625 90.48046875 C-10.49916016 90.92197266 -9.74441406 91.36347656 -8.96679688 91.81835938 C-8.17337891 92.27017578 -7.37996094 92.72199219 -6.5625 93.1875 C-5.37817383 93.88262695 -5.37817383 93.88262695 -4.16992188 94.59179688 C-0.32203961 97.08154538 -0.32203961 97.08154538 4 98 C3.67 89.09 3.34 80.18 3 71 C-0.33216546 71 -2.7209613 73.34311848 -5.375 75.1875 Z M28 129 C27.67 130.65 27.34 132.3 27 134 C28.98 133.34 30.96 132.68 33 132 C32.67 131.34 32.34 130.68 32 130 C29.97536745 129.34786708 29.97536745 129.34786708 28 129 Z " fill="#32AADA" transform="translate(130,223)"/>
<path d="M0 0 C3.91743892 0.08225713 7.83347352 0.19495985 11.75 0.3125 C12.84183594 0.33505859 13.93367188 0.35761719 15.05859375 0.38085938 C23.21991596 0.64646454 31.85576346 1.30137481 39.21386719 5.16137695 C39.80329102 5.43812256 40.39271484 5.71486816 41 6 C41.66 5.67 42.32 5.34 43 5 C51.41834849 10.17412328 56.83628009 15.2956475 60.375 24.625 C61.67407842 31.64002346 61.18300606 37.59988424 58 44 C52.88006638 50.98302058 44.23204251 56.47396826 36 59 C33.1875 58.625 33.1875 58.625 31 58 C30.4182243 39.18925234 30.4182243 39.18925234 35.125 33.375 C35.74375 32.92125 36.3625 32.4675 37 32 C35.26440562 28.942048 33.61527381 26.36620011 31 24 C31.495 27.465 31.495 27.465 32 31 C29 32 29 32 26.9375 31.5625 C20.14510791 30.26182917 13.65781669 30.79570922 7.0078125 32.5625 C5 33 5 33 1 33 C1 31.02 1 29.04 1 27 C-5.35318847 30.39491686 -11.03953643 33.79682012 -16.25 38.8125 C-20.54883382 42.82337366 -23.07928501 44.62408159 -29 45 C-33.76780354 44.20141267 -37.0597476 42.9402524 -40.5 39.5 C-43.05355133 35.24408111 -43.41632906 31.9126829 -43 27 C-38.9208374 19.0048413 -31.51845428 14.35241326 -23.75 10.375 C-23.00854736 9.98965088 -22.26709473 9.60430176 -21.50317383 9.20727539 C-7.3903942 2 -7.3903942 2 0 2 C0 1.34 0 0.68 0 0 Z " fill="#2C9ECB" transform="translate(130,223)"/>
<path d="M0 0 C1.485 0.495 1.485 0.495 3 1 C2.90912109 1.85996582 2.90912109 1.85996582 2.81640625 2.73730469 C-0.2366665 19.73719488 -0.2366665 19.73719488 2 36 C1.69172074 38.33677544 1.35274364 40.66952205 1 43 C0.75536886 45.99545391 0.61052211 48.99437433 0.46484375 51.99609375 C0.40037804 53.24641136 0.40037804 53.24641136 0.33460999 54.52198792 C0.19925817 57.16035009 0.06830935 59.7989091 -0.0625 62.4375 C-0.15400502 64.23634299 -0.24579899 66.03517132 -0.33789062 67.83398438 C-0.56193561 72.22249362 -0.78203455 76.61118477 -1 81 C-1.66 81 -2.32 81 -3 81 C-3.33 81.99 -3.66 82.98 -4 84 C-4.51385254 83.79318604 -5.02770508 83.58637207 -5.55712891 83.37329102 C-7.91064581 82.4301362 -10.26774319 81.49626607 -12.625 80.5625 C-13.83736328 80.07426758 -13.83736328 80.07426758 -15.07421875 79.57617188 C-15.86699219 79.26357422 -16.65976563 78.95097656 -17.4765625 78.62890625 C-18.19924316 78.34088135 -18.92192383 78.05285645 -19.66650391 77.75610352 C-22.41751271 76.8647168 -25.14240934 76.41875385 -28 76 C-28.00808685 75.36550934 -28.01617371 74.73101868 -28.02450562 74.07730103 C-28.11036183 67.49142936 -28.20985639 60.90586529 -28.31738281 54.3203125 C-28.35573762 51.86040398 -28.39057884 49.40043813 -28.421875 46.94042969 C-28.46738451 43.41059837 -28.52540198 39.88116405 -28.5859375 36.3515625 C-28.59748871 35.24632233 -28.60903992 34.14108215 -28.62094116 33.00234985 C-28.64081085 31.98144257 -28.66068054 30.96053528 -28.68115234 29.90869141 C-28.69447601 29.00712311 -28.70779968 28.10555481 -28.7215271 27.17666626 C-28.80120842 24.79101999 -28.80120842 24.79101999 -31 23 C-30.34 23 -29.68 23 -29 23 C-29.33 18.38 -29.66 13.76 -30 9 C-19.48976341 6.31653534 -10.675542 5.143384 0 7 C0 4.69 0 2.38 0 0 Z " fill="#48BCE9" transform="translate(161,247)"/>
<path d="M0 0 C1.64935547 0.00290039 1.64935547 0.00290039 3.33203125 0.00585938 C11.19416004 0.22502904 16.86966179 1.87423738 23 6.9375 C26.22414166 10.84238953 28.60488115 14.80095501 29 19.9375 C29.1546875 21.5153125 29.1546875 21.5153125 29.3125 23.125 C28.76780661 29.7702594 26.74841993 35.77691118 21.75 40.375 C14.50987366 46.37857011 6.41833532 46.33139785 -2.5 46.125 C-6.295 46.063125 -10.09 46.00125 -14 45.9375 C-14 31.0875 -14 16.2375 -14 0.9375 C-9.86905818 -1.12797091 -4.52384215 -0.11606208 0 0 Z M-2 11.9375 C-2 19.1975 -2 26.4575 -2 33.9375 C5.79292924 34.49066725 5.79292924 34.49066725 13.125 32.5 C15.79702444 28.84823326 16.96175853 25.48058646 17 20.9375 C16.08593455 17.96538533 14.96678222 16.47361392 13 13.9375 C8.10557281 11.11760841 8.10557281 11.11760841 -2 11.9375 Z " fill="#136B8F" transform="translate(33,24.0625)"/>
<path d="M0 0 C0.83853516 -0.020625 1.67707031 -0.04125 2.54101562 -0.0625 C9.47884717 -0.1058276 14.19448708 1.03923354 19.625 5.625 C23.01435957 9.69223149 24.03940681 12.43529087 23.6875 17.6875 C23.10923129 22.04620037 21.28187962 24.62824322 18.8125 28.25 C19.21715189 33.32500915 21.90002559 36.80205493 24.6328125 40.9453125 C25.02210938 41.70585938 25.41140625 42.46640625 25.8125 43.25 C25.4825 44.24 25.1525 45.23 24.8125 46.25 C20.68890387 46.79047134 16.91430426 47.02955209 12.8125 46.25 C9.37111001 43.141017 7.62360794 39.26719018 5.9140625 35.015625 C4.94076967 33.0467892 4.94076967 33.0467892 2.6875 32.5 C2.06875 32.4175 1.45 32.335 0.8125 32.25 C0.82410156 33.17683594 0.83570313 34.10367188 0.84765625 35.05859375 C0.85667969 36.25613281 0.86570313 37.45367187 0.875 38.6875 C0.88660156 39.88246094 0.89820313 41.07742187 0.91015625 42.30859375 C0.8125 45.25 0.8125 45.25 -0.1875 46.25 C-2.04037502 46.32226502 -3.89583878 46.3338122 -5.75 46.3125 C-6.76191406 46.30347656 -7.77382812 46.29445312 -8.81640625 46.28515625 C-9.99009766 46.26775391 -9.99009766 46.26775391 -11.1875 46.25 C-12.24836125 41.93077922 -12.33981835 37.73319413 -12.3125 33.3125 C-12.31056641 32.54631348 -12.30863281 31.78012695 -12.30664062 30.99072266 C-12.23537912 21.06755811 -11.71204556 11.15777286 -11.1875 1.25 C-7.72008641 -0.48370679 -3.82052982 0.02296336 0 0 Z M0.8125 12.25 C0.8125 14.89 0.8125 17.53 0.8125 20.25 C2.27042884 20.30399736 3.72892712 20.34279177 5.1875 20.375 C6.40566406 20.40980469 6.40566406 20.40980469 7.6484375 20.4453125 C10.02592243 20.46370051 10.02592243 20.46370051 11.8125 18.25 C11.52266731 14.94316534 11.52266731 14.94316534 9.8125 12.25 C8.29321962 12.17820036 6.77082518 12.16607993 5.25 12.1875 C4.01056641 12.20103516 4.01056641 12.20103516 2.74609375 12.21484375 C1.78896484 12.23224609 1.78896484 12.23224609 0.8125 12.25 Z " fill="#136891" transform="translate(205.1875,23.75)"/>
<path d="M0 0 C0.33 10.23 0.66 20.46 1 31 C7.31646344 32.07071068 7.31646344 32.07071068 11 32 C11.33 21.11 11.66 10.22 12 -1 C15.63 -1.33 19.26 -1.66 23 -2 C24.94784749 -0.05215251 24.21086029 3.62902422 24.23828125 6.2890625 C24.246353 7.02571136 24.25442474 7.76236023 24.26274109 8.52133179 C24.2766023 10.08662552 24.28731531 11.65194974 24.29516602 13.21728516 C24.31228168 15.5946753 24.3561337 17.97063913 24.40039062 20.34765625 C24.4105261 21.86978145 24.41903952 23.39191848 24.42578125 24.9140625 C24.44328934 25.61850494 24.46079742 26.32294739 24.47883606 27.04873657 C24.4549986 32.56450292 23.04717078 35.56781419 20 40 C14.61011874 44.26698933 10.11009172 45.36996414 3.37890625 45.28125 C-1.84119354 44.66409534 -5.7085441 42.2914559 -9.375 38.625 C-12.55573866 33.4868837 -13.25063687 28.87032389 -13.23046875 22.88671875 C-13.23001053 22.23169876 -13.22955231 21.57667877 -13.2290802 20.90180969 C-13.22607911 19.52949186 -13.21825776 18.15717677 -13.20581055 16.78491211 C-13.1874009 14.6761483 -13.1853022 12.56782067 -13.18554688 10.45898438 C-13.1476657 0.1476657 -13.1476657 0.1476657 -12 -1 C-4.65060241 -2.3253012 -4.65060241 -2.3253012 0 0 Z " fill="#116A8E" transform="translate(151,26)"/>
<path d="M0 0 C4.09492234 2.8692313 6.73059119 5.2780343 7.72265625 10.20703125 C6.48633945 11.10126039 5.23294063 11.97191016 3.97265625 12.83203125 C3.2765625 13.31929687 2.58046875 13.8065625 1.86328125 14.30859375 C-0.27734375 15.20703125 -0.27734375 15.20703125 -2.43359375 14.45703125 C-4.27734375 13.20703125 -4.27734375 13.20703125 -6.02734375 11.58203125 C-9.33885786 9.55832818 -12.5523268 9.51967693 -16.27734375 10.20703125 C-19.08737835 12.00067036 -20.78674843 13.2258406 -22.27734375 16.20703125 C-22.80648625 22.60446757 -22.80648625 22.60446757 -20.27734375 28.20703125 C-17.48996189 30.24657895 -15.48705462 31.27102619 -11.98828125 31.0859375 C-8.22732538 30.39377461 -5.9190814 29.86821549 -3.21484375 27.08203125 C-2.90546875 26.46328125 -2.59609375 25.84453125 -2.27734375 25.20703125 C1.31656739 26.54191253 4.47756321 28.16725848 7.72265625 30.20703125 C7.64275203 32.92377487 7.16438981 34.69338758 5.37890625 36.76953125 C0.06811715 41.59752134 -5.04822122 43.8424529 -12.15234375 44.64453125 C-19.34917194 44.29105246 -25.43658281 41.59336189 -30.27734375 36.26953125 C-34.59331732 30.77831605 -36.8154658 25.10137938 -36.03125 17.96875 C-34.44218522 9.60155048 -30.14681252 4.07920954 -23.27734375 -0.79296875 C-16.01035974 -4.42646075 -6.97949319 -4.05584512 0 0 Z " fill="#126A8F" transform="translate(113.27734375,26.79296875)"/>
<path d="M0 0 C1.16208984 -0.00128906 2.32417969 -0.00257812 3.52148438 -0.00390625 C4.74029297 -0.00003906 5.95910156 0.00382812 7.21484375 0.0078125 C8.43751953 0.00394531 9.66019531 0.00007813 10.91992188 -0.00390625 C12.08072266 -0.00261719 13.24152344 -0.00132813 14.4375 0 C15.5087915 0.00112793 16.58008301 0.00225586 17.68383789 0.00341797 C20.15234375 0.1328125 20.15234375 0.1328125 21.15234375 1.1328125 C21.29544662 4.8019702 21.19456037 8.45996691 21.15234375 12.1328125 C15.54234375 12.1328125 9.93234375 12.1328125 4.15234375 12.1328125 C4.48234375 13.4528125 4.81234375 14.7728125 5.15234375 16.1328125 C6.06757813 16.10960937 6.9828125 16.08640625 7.92578125 16.0625 C9.11429687 16.04445313 10.3028125 16.02640625 11.52734375 16.0078125 C12.71070313 15.98460937 13.8940625 15.96140625 15.11328125 15.9375 C18.15234375 16.1328125 18.15234375 16.1328125 20.15234375 18.1328125 C20.3828125 20.26171875 20.3828125 20.26171875 20.33984375 22.6953125 C20.33339844 23.50097656 20.32695312 24.30664062 20.3203125 25.13671875 C20.15234375 27.1328125 20.15234375 27.1328125 19.15234375 28.1328125 C16.62184973 28.20594817 14.11929538 28.22528777 11.58984375 28.1953125 C10.87892578 28.19080078 10.16800781 28.18628906 9.43554688 28.18164062 C7.67444362 28.16982114 5.91338339 28.15188513 4.15234375 28.1328125 C4.15234375 30.1128125 4.15234375 32.0928125 4.15234375 34.1328125 C9.76234375 34.1328125 15.37234375 34.1328125 21.15234375 34.1328125 C22.34217435 36.5124737 22.28584341 38.04766985 22.27734375 40.6953125 C22.28121094 41.90380859 22.28121094 41.90380859 22.28515625 43.13671875 C22.15234375 45.1328125 22.15234375 45.1328125 21.15234375 46.1328125 C19.09179065 46.23274782 17.02781785 46.26362156 14.96484375 46.265625 C13.70929688 46.26691406 12.45375 46.26820312 11.16015625 46.26953125 C10.50305664 46.26743652 9.84595703 46.2653418 9.16894531 46.26318359 C7.1607304 46.25783484 5.15273916 46.26312941 3.14453125 46.26953125 C1.88898438 46.26824219 0.6334375 46.26695313 -0.66015625 46.265625 C-1.82160156 46.26449707 -2.98304688 46.26336914 -4.1796875 46.26220703 C-6.84765625 46.1328125 -6.84765625 46.1328125 -7.84765625 45.1328125 C-7.94043955 43.75121135 -7.96512668 42.36493212 -7.96118164 40.98022461 C-7.96106834 39.65896828 -7.96106834 39.65896828 -7.96095276 38.3110199 C-7.95321083 36.87509239 -7.95321083 36.87509239 -7.9453125 35.41015625 C-7.94389755 34.43494522 -7.9424826 33.45973419 -7.94102478 32.45497131 C-7.93540758 29.32672107 -7.92285218 26.19854127 -7.91015625 23.0703125 C-7.90514347 20.95507916 -7.90058018 18.83984469 -7.89648438 16.72460938 C-7.88543256 11.52731954 -7.86867771 6.33007105 -7.84765625 1.1328125 C-5.14669548 -0.21766789 -3.02039108 0.00317673 0 0 Z " fill="#11698E" transform="translate(253.84765625,23.8671875)"/>
<path d="M0 0 C1.80278023 19.70955671 1.80278023 19.70955671 -2.23828125 24.84375 C-5.09661298 26.54559839 -7.90501592 27.7926161 -11 29 C-13.79953883 30.95967718 -16.44958575 32.8991715 -18 36 C-22.80082963 35.23186726 -25.2812806 34.20460411 -28.375 30.375 C-31.82783673 25.33349105 -32 21.03053175 -32 15 C-26.43669837 9.68421815 -19.41870104 5.94606847 -12.625 2.4375 C-11.94759766 2.07889893 -11.27019531 1.72029785 -10.57226562 1.35083008 C-6.51455549 -0.66646313 -4.33752959 -1.11673465 0 0 Z " fill="#126E94" transform="translate(133,272)"/>
<path d="M0 0 C2.62573061 0.64297504 5.25057303 1.28924411 7.875 1.9375 C8.99455078 2.21110352 8.99455078 2.21110352 10.13671875 2.49023438 C15.7734375 3.88671875 15.7734375 3.88671875 18 5 C18.46242355 16.26943326 18.4565507 28.28804559 12 38 C9.625 37.6875 9.625 37.6875 7 37 C4.98415083 33.97622625 4.64432618 32.73647108 4.21875 29.25390625 C4.09886719 28.33416016 3.97898438 27.41441406 3.85546875 26.46679688 C3.73816406 25.50837891 3.62085938 24.54996094 3.5 23.5625 C3.26707909 21.66713811 3.02772883 19.77255274 2.78125 17.87890625 C2.67876953 17.0391626 2.57628906 16.19941895 2.47070312 15.33422852 C1.98548661 12.92802773 1.1308493 11.1628281 0 9 C-0.1953125 6.640625 -0.1953125 6.640625 -0.125 4.25 C-0.10695312 3.45078125 -0.08890625 2.6515625 -0.0703125 1.828125 C-0.04710937 1.22484375 -0.02390625 0.6215625 0 0 Z " fill="#2BB0E5" transform="translate(137,354)"/>
<path d="M0 0 C1.20269531 -0.01417969 2.40539062 -0.02835938 3.64453125 -0.04296875 C8.57799771 0.27795134 11.98827762 1.10819986 15.6875 4.4375 C17.1875 7.1875 17.1875 7.1875 16.9375 10.25 C14.42622127 14.46536073 11.90507659 15.94121484 7.1875 17.1875 C-0.24612704 17.94102256 -6.25160011 18.05357453 -12.8125 14.1875 C-14.75 12.375 -14.75 12.375 -15.8125 10.1875 C-15.8125 7.125 -15.8125 7.125 -14.8125 4.1875 C-10.066593 0.56562361 -5.84694197 0.03113388 0 0 Z " fill="#94D7F2" transform="translate(146.8125,131.8125)"/>
<path d="M0 0 C1.97508981 1.54177929 2.16563253 2.76801873 2.53125 5.1953125 C-5.79811124 12.55144033 -15.85077315 17.08314687 -26.46875 20.1953125 C-26.32655436 17.98674195 -26.17983153 15.77846263 -26.03125 13.5703125 C-25.90943359 11.72566406 -25.90943359 11.72566406 -25.78515625 9.84375 C-25.50211056 6.57998862 -25.05836047 3.41587391 -24.46875 0.1953125 C-23.80875 0.1953125 -23.14875 0.1953125 -22.46875 0.1953125 C-22.13875 -0.7946875 -21.80875 -1.7846875 -21.46875 -2.8046875 C-14.16189599 -6.64078586 -6.91331997 -3.26462332 0 0 Z " fill="#13749A" transform="translate(180.46875,358.8046875)"/>
<path d="M0 0 C5.6131052 1.36075278 8.61031425 5.62621194 12 10 C13.98102489 13.96204978 13.54429906 18.69043214 13 23 C11.0625 25.4375 11.0625 25.4375 8 27 C7.28714844 27.37898438 6.57429687 27.75796875 5.83984375 28.1484375 C1.38337203 30.36551358 -1.05748485 31.34874973 -6 30 C-6.5908558 10.89566237 -6.5908558 10.89566237 -1.875 5.625 C-0.946875 4.820625 -0.946875 4.820625 0 4 C0 2.68 0 1.36 0 0 Z " fill="#137399" transform="translate(167,251)"/>
<path d="M0 0 C3 1 3 1 5 4 C5.33 3.01 5.66 2.02 6 1 C8.0625 0.3125 8.0625 0.3125 10 0 C11.24213914 4.27327112 10.69146302 6.71541119 9.0625 10.8125 C8.68222656 11.78832031 8.30195312 12.76414062 7.91015625 13.76953125 C7.60980469 14.50558594 7.30945313 15.24164063 7 16 C5.35 16 3.7 16 2 16 C1.67 15.01 1.34 14.02 1 13 C0.01 14.485 0.01 14.485 -1 16 C-3.625 16.1875 -3.625 16.1875 -6 16 C-6.67467562 14.25307205 -7.33944156 12.50231475 -8 10.75 C-8.37125 9.77546875 -8.7425 8.8009375 -9.125 7.796875 C-10 5 -10 5 -10 1 C-7.625 0.875 -7.625 0.875 -5 1 C-4.34 1.66 -3.68 2.32 -3 3 C-2.01 2.01 -1.02 1.02 0 0 Z " fill="#29B1E6" transform="translate(112,84)"/>
<path d="M0 0 C2.55914724 2.55914724 2.56934885 4.20441649 3.125 7.75 C3.29257813 8.77609375 3.46015625 9.8021875 3.6328125 10.859375 C3.99289478 13.93922772 4.06491813 16.90247797 4 20 C2.39950296 20.39036513 0.79437629 20.76178619 -0.8125 21.125 C-1.70582031 21.33382813 -2.59914062 21.54265625 -3.51953125 21.7578125 C-6 22 -6 22 -9 20 C-9.82642696 15.04143824 -9.40563763 10.26198375 -7.875 5.5 C-5.61091797 2.48122396 -3.47136319 1.38854528 0 0 Z " fill="#14749A" transform="translate(138,365)"/>
<path d="M0 0 C1.32 0.66 2.64 1.32 4 2 C4 3.65 4 5.3 4 7 C4.99 7 5.98 7 7 7 C7 5.02 7 3.04 7 1 C7.99 0.67 8.98 0.34 10 0 C11.484375 1.15234375 11.484375 1.15234375 13 3 C13.328125 5.62890625 13.328125 5.62890625 13.25 8.5625 C13.22679687 10.01849609 13.22679687 10.01849609 13.203125 11.50390625 C13 14 13 14 12 16 C10.35 15.67 8.7 15.34 7 15 C6.67 13.68 6.34 12.36 6 11 C5.773125 11.639375 5.54625 12.27875 5.3125 12.9375 C4 15 4 15 1.4375 15.8125 C0.633125 15.874375 -0.17125 15.93625 -1 16 C-2.87243981 14.12756019 -2.17380392 11.06340482 -2.1875 8.5625 C-2.20167969 7.38816406 -2.21585938 6.21382813 -2.23046875 5.00390625 C-2 2 -2 2 0 0 Z " fill="#26BAEB" transform="translate(164,84)"/>
<path d="M0 0 C3.37931782 -0.28530826 6.62956833 -0.43280021 10 0 C12.25 2.1875 12.25 2.1875 13 5 C12.38325228 6.68577711 11.71727778 8.35448038 11 10 C11.76603959 12.2857711 11.76603959 12.2857711 13 14 C12 15 12 15 9.625 15.0625 C8.75875 15.041875 7.8925 15.02125 7 15 C6.01 15 5.02 15 4 15 C2.68 15 1.36 15 0 15 C-1.66905739 9.99282782 -1.41644237 5.02499794 0 0 Z M5 4 C5 4.66 5 5.32 5 6 C5.66 6 6.32 6 7 6 C7 5.34 7 4.68 7 4 C6.34 4 5.68 4 5 4 Z " fill="#30B1E5" transform="translate(52,85)"/>
<path d="M0 0 C0.79148437 -0.02578125 1.58296875 -0.0515625 2.3984375 -0.078125 C5.13296343 0.32485777 5.98879694 1.05968344 7.625 3.25 C7.8125 5.6875 7.8125 5.6875 7.625 8.25 C7.625 9.57 7.625 10.89 7.625 12.25 C7.625 13.24 7.625 14.23 7.625 15.25 C5.25 15.4375 5.25 15.4375 2.625 15.25 C1.965 14.26 1.305 13.27 0.625 12.25 C0.295 13.24 -0.035 14.23 -0.375 15.25 C-2.025 14.92 -3.675 14.59 -5.375 14.25 C-5.40185938 12.10423363 -5.42133088 9.95837355 -5.4375 7.8125 C-5.44910156 6.61753906 -5.46070313 5.42257813 -5.47265625 4.19140625 C-5.32277953 -0.32288049 -4.11953849 0.07999104 0 0 Z M0.625 4.25 C0.295 4.91 -0.035 5.57 -0.375 6.25 C0.615 5.92 1.605 5.59 2.625 5.25 C1.965 4.92 1.305 4.59 0.625 4.25 Z " fill="#30B2E5" transform="translate(263.375,84.75)"/>
<path d="M0 0 C1.22589844 0.15275391 1.22589844 0.15275391 2.4765625 0.30859375 C3.41628906 0.43427734 3.41628906 0.43427734 4.375 0.5625 C5.375 3.5625 5.375 3.5625 4.875 7 C4.4316155 10.15911459 4.47312359 11.63140168 5.375 14.5625 C4.375 15.5625 4.375 15.5625 2.125 15.6953125 C1.2175 15.69273438 0.31 15.69015625 -0.625 15.6875 C-1.98625 15.69136719 -1.98625 15.69136719 -3.375 15.6953125 C-5.625 15.5625 -5.625 15.5625 -6.625 14.5625 C-6.69771741 12.20936445 -6.70870868 9.85416332 -6.6875 7.5 C-6.67847656 6.20964844 -6.66945313 4.91929688 -6.66015625 3.58984375 C-6.64855469 2.59082031 -6.63695313 1.59179688 -6.625 0.5625 C-4.10446405 -0.69776798 -2.7707902 -0.35624445 0 0 Z " fill="#38B8EA" transform="translate(78.625,84.4375)"/>
<path d="M0 0 C1.32 0.66 2.64 1.32 4 2 C4 4.97 4 7.94 4 11 C4.99 11 5.98 11 7 11 C7 7.7 7 4.4 7 1 C8.32 0.67 9.64 0.34 11 0 C13 2 13 2 13.1171875 4.49609375 C13.03726563 5.46675781 12.95734375 6.43742187 12.875 7.4375 C12.81054688 8.40558594 12.74609375 9.37367187 12.6796875 10.37109375 C12 13 12 13 10.16796875 14.8515625 C6.82633094 16.6217274 4.56492799 15.97225309 1 15 C-1.16958588 12.79558132 -1.94153513 11.51449088 -2.29296875 8.421875 C-2.25816406 7.54015625 -2.22335938 6.6584375 -2.1875 5.75 C-2.16042969 4.85796875 -2.13335938 3.9659375 -2.10546875 3.046875 C-2.07066406 2.37140625 -2.03585938 1.6959375 -2 1 C-1.34 0.67 -0.68 0.34 0 0 Z " fill="#2EB8E9" transform="translate(32,84)"/>
<path d="M0 0 C7.99180328 -0.6147541 7.99180328 -0.6147541 11.5625 1.5625 C13.56331202 4.95518126 13.55326548 7.12714161 13 11 C11.5625 13.4375 11.5625 13.4375 9 15 C5.96917943 15.31821008 3.03467666 15.23343667 0 15 C-1.30459914 12.39080172 -1.1326594 10.41057385 -1.125 7.5 C-1.12757813 6.5203125 -1.13015625 5.540625 -1.1328125 4.53125 C-1 2 -1 2 0 0 Z M5 4 C3.66667905 6.6666419 4.32897967 8.16680303 5 11 C5.99 10.67 6.98 10.34 8 10 C8 8.35 8 6.7 8 5 C7.01 4.67 6.02 4.34 5 4 Z " fill="#2BB4E9" transform="translate(195,85)"/>
<path d="M0 0 C1.51400391 0.01740234 1.51400391 0.01740234 3.05859375 0.03515625 C4.07050781 0.04417969 5.08242188 0.05320312 6.125 0.0625 C7.29869141 0.07990234 7.29869141 0.07990234 8.49609375 0.09765625 C8.41230469 0.73574219 8.32851563 1.37382813 8.2421875 2.03125 C8.14035156 2.85753906 8.03851563 3.68382813 7.93359375 4.53515625 C7.82917969 5.35886719 7.72476562 6.18257813 7.6171875 7.03125 C7.57722656 7.71316406 7.53726562 8.39507812 7.49609375 9.09765625 C7.82609375 9.42765625 8.15609375 9.75765625 8.49609375 10.09765625 C8.53673207 11.7638274 8.53881475 13.4315372 8.49609375 15.09765625 C6.68367323 15.12452904 4.87114142 15.1439934 3.05859375 15.16015625 C2.04925781 15.17175781 1.03992188 15.18335937 0 15.1953125 C-2.50390625 15.09765625 -2.50390625 15.09765625 -3.50390625 14.09765625 C-3.60283565 11.93284828 -3.63361725 9.7647184 -3.62890625 7.59765625 C-3.63148438 6.41171875 -3.6340625 5.22578125 -3.63671875 4.00390625 C-3.45991124 0.13494194 -3.45991124 0.13494194 0 0 Z M2.49609375 4.09765625 C2.49609375 4.75765625 2.49609375 5.41765625 2.49609375 6.09765625 C3.15609375 5.76765625 3.81609375 5.43765625 4.49609375 5.09765625 C3.83609375 4.76765625 3.17609375 4.43765625 2.49609375 4.09765625 Z " fill="#2BAEE4" transform="translate(281.50390625,84.90234375)"/>
<path d="M0 0 C0.99 0.33 1.98 0.66 3 1 C3.33 3.97 3.66 6.94 4 10 C4.66 10 5.32 10 6 10 C5.979375 8.700625 5.95875 7.40125 5.9375 6.0625 C5.91600546 4.70834367 5.92851801 3.35243917 6 2 C7 1 7 1 9.5625 0.9375 C10.7690625 0.9684375 10.7690625 0.9684375 12 1 C12.61919654 10.97594419 12.61919654 10.97594419 10.375 14.6875 C7.26794769 16.40455522 5.50031342 16.58338557 2 16 C-0.375 14.6875 -0.375 14.6875 -2 12 C-2.32924499 8.30926983 -2.22932778 4.69472534 -2 1 C-1.34 0.67 -0.68 0.34 0 0 Z " fill="#2FB5E8" transform="translate(239,84)"/>
<path d="M0 0 C0.33 1.32 0.66 2.64 1 4 C-1.76264289 4.59732819 -4.16032769 5 -7 5 C-7 5.99 -7 6.98 -7 8 C-5.576875 7.9071875 -5.576875 7.9071875 -4.125 7.8125 C-3.09375 7.874375 -2.0625 7.93625 -1 8 C-0.01 9.485 -0.01 9.485 1 11 C-0.0625 12.5 -0.0625 12.5 -2 14 C-5.61032183 14.39385329 -8.0693919 14.44081436 -11.375 12.875 C-13.64943318 10.25065402 -13.93096951 8.45152438 -14 5 C-12.77628305 2.16612916 -11.62756088 0.51549644 -9.25 -1.4375 C-5.83198241 -2.2920044 -3.25800369 -1.12777051 0 0 Z " fill="#37BCE8" transform="translate(22,86)"/>
<path d="M0 0 C0.875 2.125 0.875 2.125 1 4 C-1.89234315 4.82638376 -3.88742431 5 -7 5 C-7 5.99 -7 6.98 -7 8 C-4.69 8 -2.38 8 0 8 C0.33 9.32 0.66 10.64 1 12 C-2.73255448 14.48836965 -4.58440935 14.54226552 -9 14 C-11.96135546 11.41830549 -12.86756104 9.81118865 -13.5 5.9375 C-12.88650515 2.33321775 -11.86209271 1.20790009 -9 -1 C-5.1851221 -2.27162597 -3.6068725 -1.64661571 0 0 Z " fill="#2CB4E5" transform="translate(228,86)"/>
<path d="M0 0 C0 1.32 0 2.64 0 4 C-0.99 4 -1.98 4 -3 4 C-3 7.3 -3 10.6 -3 14 C-4.65 14.33 -6.3 14.66 -8 15 C-8.19491452 13.54263913 -8.38069358 12.08405407 -8.5625 10.625 C-8.66691406 9.81289062 -8.77132812 9.00078125 -8.87890625 8.1640625 C-9 6 -9 6 -8 4 C-9.32 4 -10.64 4 -12 4 C-12 2.68 -12 1.36 -12 0 C-7.66726186 -0.92844389 -4.33273814 -0.92844389 0 0 Z " fill="#2FB6E7" transform="translate(155,85)"/>
<path d="M0 0 C1.32 0.66 2.64 1.32 4 2 C4 6.29 4 10.58 4 15 C2.35 15.33 0.7 15.66 -1 16 C-2.87243981 14.12756019 -2.17380392 11.06340482 -2.1875 8.5625 C-2.20167969 7.38816406 -2.21585938 6.21382813 -2.23046875 5.00390625 C-2 2 -2 2 0 0 Z " fill="#24B2ED" transform="translate(132,84)"/>
<path d="M0 0 C1.16144531 0.00902344 2.32289063 0.01804688 3.51953125 0.02734375 C4.39996094 0.03894531 5.28039062 0.05054688 6.1875 0.0625 C7.3773306 2.4421612 7.32099966 3.97735735 7.3125 6.625 C7.31636719 7.83349609 7.31636719 7.83349609 7.3203125 9.06640625 C7.1875 11.0625 7.1875 11.0625 6.1875 12.0625 C4.18586123 12.0792793 2.18355136 12.02512541 0.18359375 11.94140625 C-1.03134766 11.89306641 -2.24628906 11.84472656 -3.49804688 11.79492188 C-4.77744141 11.73884766 -6.05683594 11.68277344 -7.375 11.625 C-8.65826172 11.57279297 -9.94152344 11.52058594 -11.26367188 11.46679688 C-14.44683391 11.3366304 -17.62972004 11.20164999 -20.8125 11.0625 C-20.8125 10.7325 -20.8125 10.4025 -20.8125 10.0625 C-12.5625 10.0625 -4.3125 10.0625 4.1875 10.0625 C4.1875 7.4225 4.1875 4.7825 4.1875 2.0625 C-1.0925 2.0625 -6.3725 2.0625 -11.8125 2.0625 C-11.8125 1.7325 -11.8125 1.4025 -11.8125 1.0625 C-7.81454108 0.10630267 -4.10446078 -0.0414592 0 0 Z " fill="#2F789A" transform="translate(268.8125,57.9375)"/>
<path d="M0 0 C1.22589844 0.01353516 1.22589844 0.01353516 2.4765625 0.02734375 C3.10304687 0.03894531 3.72953125 0.05054688 4.375 0.0625 C4.375 0.3925 4.375 0.7225 4.375 1.0625 C3.68792969 1.17207031 3.00085938 1.28164062 2.29296875 1.39453125 C1.39191406 1.55308594 0.49085938 1.71164063 -0.4375 1.875 C-1.33082031 2.02582031 -2.22414062 2.17664063 -3.14453125 2.33203125 C-5.9150406 3.14791353 -6.95568187 3.72545461 -8.625 6.0625 C-9.41298055 8.55693774 -9.41298055 8.55693774 -9.8125 11.25 C-10.05033203 12.60158203 -10.05033203 12.60158203 -10.29296875 13.98046875 C-10.45732422 15.01107422 -10.45732422 15.01107422 -10.625 16.0625 C-8.315 16.7225 -6.005 17.3825 -3.625 18.0625 C-3.625 19.0525 -3.625 20.0425 -3.625 21.0625 C-4.27726562 20.78535156 -4.92953125 20.50820312 -5.6015625 20.22265625 C-6.47554687 19.86042969 -7.34953125 19.49820313 -8.25 19.125 C-9.10851562 18.76535156 -9.96703125 18.40570313 -10.8515625 18.03515625 C-16.91424202 15.90894893 -23.14101387 15.79209198 -29.5 15.5 C-30.37914062 15.45681641 -31.25828125 15.41363281 -32.1640625 15.36914062 C-34.31755797 15.26380661 -36.47126064 15.16272351 -38.625 15.0625 C-38.625 14.7325 -38.625 14.4025 -38.625 14.0625 C-35.22918484 14.0333456 -31.83340214 14.01564932 -28.4375 14 C-27.47779297 13.99162109 -26.51808594 13.98324219 -25.52929688 13.97460938 C-24.59794922 13.97138672 -23.66660156 13.96816406 -22.70703125 13.96484375 C-21.85343018 13.95960693 -20.9998291 13.95437012 -20.12036133 13.94897461 C-17.53253253 14.06670677 -15.14838047 14.49142956 -12.625 15.0625 C-12.57601562 14.30324219 -12.52703125 13.54398438 -12.4765625 12.76171875 C-12.40179688 11.76785156 -12.32703125 10.77398437 -12.25 9.75 C-12.18039063 8.76386719 -12.11078125 7.77773437 -12.0390625 6.76171875 C-11.625 4.0625 -11.625 4.0625 -9.625 1.0625 C-8.635 1.0625 -7.645 1.0625 -6.625 1.0625 C-4.21954362 -0.14022819 -2.67503047 -0.03821472 0 0 Z " fill="#48B6E1" transform="translate(174.625,208.9375)"/>
<path d="M0 0 C1.32 0.66 2.64 1.32 4 2 C4 3.65 4 5.3 4 7 C5.65 6.67 7.3 6.34 9 6 C8.67 6.66 8.34 7.32 8 8 C5.4375 8.625 5.4375 8.625 3 9 C3.33 10.98 3.66 12.96 4 15 C2.34385343 15.38218767 0.67542976 15.71395102 -1 16 C-2.87243981 14.12756019 -2.17380392 11.06340482 -2.1875 8.5625 C-2.20167969 7.38816406 -2.21585938 6.21382813 -2.23046875 5.00390625 C-2 2 -2 2 0 0 Z " fill="#36B5EC" transform="translate(164,84)"/>
<path d="M0 0 C3 2 3 2 3.8125 3.875 C4 6 4 6 2.9375 8 C2.628125 8.66 2.31875 9.32 2 10 C2.78309467 12.23470405 2.78309467 12.23470405 4 14 C3 15 3 15 0.625 15.1875 C-2 15 -2 15 -5 13 C-5.1875 10.375 -5.1875 10.375 -5 8 C-3.68 7.67 -2.36 7.34 -1 7 C-2.25541557 4.48916886 -3.50063488 4.12874554 -6 3 C-6.33 3.66 -6.66 4.32 -7 5 C-7 4.01 -7 3.02 -7 2 C-4.69 2 -2.38 2 0 2 C0 1.34 0 0.68 0 0 Z " fill="#27B3E7" transform="translate(61,85)"/>
<path d="M0 0 C1 1 1 1 1.1328125 3.03125 C1.13023437 3.8459375 1.12765625 4.660625 1.125 5.5 C1.12886719 6.72203125 1.12886719 6.72203125 1.1328125 7.96875 C1 10 1 10 0 11 C-2.53049402 11.07313567 -5.03304837 11.09247527 -7.5625 11.0625 C-8.27341797 11.05798828 -8.98433594 11.05347656 -9.71679688 11.04882812 C-11.47790013 11.03700864 -13.23896036 11.01907263 -15 11 C-15.33 12.65 -15.66 14.3 -16 16 C-16.33 16 -16.66 16 -17 16 C-17.04254356 14.00045254 -17.04080783 11.99958364 -17 10 C-16 9 -16 9 -12.83984375 8.90234375 C-10.90818359 8.91974609 -10.90818359 8.91974609 -8.9375 8.9375 C-7.64714844 8.94652344 -6.35679687 8.95554687 -5.02734375 8.96484375 C-4.02832031 8.97644531 -3.02929688 8.98804688 -2 9 C-2 6.36 -2 3.72 -2 1 C-4.97 1 -7.94 1 -11 1 C-11 0.67 -11 0.34 -11 0 C-3.4137931 -1.31299735 -3.4137931 -1.31299735 0 0 Z " fill="#29719C" transform="translate(273,41)"/>
<path d="M0 0 C2.33294775 -0.04241723 4.66702567 -0.04092937 7 0 C8 1 8 1 8.09765625 3.50390625 C8.06510417 6.3359375 8.03255208 9.16796875 8 12 C2.39 12 -3.22 12 -9 12 C-9 13.32 -9 14.64 -9 16 C-9.66 16 -10.32 16 -11 16 C-11.042721 14.33388095 -11.04063832 12.66617115 -11 11 C-10 10 -10 10 -6.40234375 9.90234375 C-4.91403133 9.9090178 -3.42573568 9.92097817 -1.9375 9.9375 C-0.79958008 9.94426758 -0.79958008 9.94426758 0.36132812 9.95117188 C2.24091871 9.9629932 4.12046899 9.98092922 6 10 C6 7.36 6 4.72 6 2 C4.02 2 2.04 2 0 2 C0 1.34 0 0.68 0 0 Z " fill="#197090" transform="translate(267,24)"/>
<path d="M0 0 C0.66 1.32 1.32 2.64 2 4 C-2.09962362 7.62539014 -5.98832 10.2539253 -10.9375 12.6875 C-12.10152344 13.26886719 -13.26554688 13.85023438 -14.46484375 14.44921875 C-17.98114231 15.99172762 -21.29391052 17.03916199 -25 18 C-25.33 17.34 -25.66 16.68 -26 16 C-25.23707642 15.6757605 -25.23707642 15.6757605 -24.45874023 15.3449707 C-22.11451469 14.34281229 -19.77607661 13.3277667 -17.4375 12.3125 C-16.63763672 11.97283203 -15.83777344 11.63316406 -15.01367188 11.28320312 C-9.83865359 9.0230931 -5.39186685 6.5723595 -1 3 C-0.67 2.01 -0.34 1.02 0 0 Z " fill="#228BAB" transform="translate(181,360)"/>
<path d="M0 0 C0.99 0.33 1.98 0.66 3 1 C2.01 1.33 1.02 1.66 0 2 C-1.11935073 3.64630193 -1.11935073 3.64630193 -2 6 C-2.53625 7.134375 -3.0725 8.26875 -3.625 9.4375 C-5.76542003 15.10584852 -5.24541678 21.03728125 -5 27 C-5.33 26.34 -5.66 25.68 -6 25 C-6.66 25 -7.32 25 -8 25 C-9.52126307 17.85006356 -8.72895891 12.01173488 -5.0625 5.625 C-3.46011789 3.58560459 -1.92367875 1.73131088 0 0 Z " fill="#257599" transform="translate(86,29)"/>
<path d="M0 0 C0.73154297 0.01353516 1.46308594 0.02707031 2.21679688 0.04101562 C3.99902422 0.07596126 5.78086573 0.12975195 7.5625 0.1875 C7.5625 0.8475 7.5625 1.5075 7.5625 2.1875 C5.82613281 2.24357422 5.82613281 2.24357422 4.0546875 2.30078125 C2.51559439 2.36647425 0.9765333 2.43292042 -0.5625 2.5 C-1.70332031 2.53383789 -1.70332031 2.53383789 -2.8671875 2.56835938 C-9.24629304 2.87081697 -13.94949128 4.59092089 -18.8125 8.875 C-19.67875 9.638125 -20.545 10.40125 -21.4375 11.1875 C-21.12099428 8.23344663 -20.47976918 7.22852597 -18.3125 5.125 C-12.10638517 0.94261827 -7.33827184 -0.26184136 0 0 Z " fill="#8BD4F2" transform="translate(147.4375,126.8125)"/>
<path d="M0 0 C0.66 0.33 1.32 0.66 2 1 C-4.68163901 7.49509579 -4.68163901 7.49509579 -8.9375 9.125 C-13.20639697 8.95075931 -17.23927704 8.08344052 -21 6 C-22.265625 3.88671875 -22.265625 3.88671875 -23 2 C-18.125 3.875 -18.125 3.875 -17 5 C-11.66848484 5.71495414 -7.32829667 5.73046521 -2.875 2.5 C-1.451875 1.2625 -1.451875 1.2625 0 0 Z " fill="#1594B8" transform="translate(113,259)"/>
<path d="M0 0 C2.80390987 2.80390987 2.66520791 5.11641171 3 9 C2.5625 11.4375 2.5625 11.4375 2 13 C1.01 12.67 0.02 12.34 -1 12 C-1.06058594 11.23300781 -1.12117187 10.46601563 -1.18359375 9.67578125 C-1.75182704 6.8223391 -1.75182704 6.8223391 -4.28515625 5.41796875 C-5.20167969 5.01191406 -6.11820313 4.60585938 -7.0625 4.1875 C-7.98160156 3.76855469 -8.90070313 3.34960938 -9.84765625 2.91796875 C-10.55792969 2.61503906 -11.26820313 2.31210937 -12 2 C-8.73635123 0.93807524 -8.17280159 0.92545814 -4.8125 2.375 C-2 4 -2 4 -1 5 C-0.67 3.35 -0.34 1.7 0 0 Z " fill="#49C1E9" transform="translate(185,346)"/>
<path d="M0 0 C0.33 1.32 0.66 2.64 1 4 C1.66 4 2.32 4 3 4 C4.7265625 6.5546875 4.7265625 6.5546875 6.625 9.875 C7.57246094 11.51082031 7.57246094 11.51082031 8.5390625 13.1796875 C10 16 10 16 10 18 C6.04 18 2.08 18 -2 18 C-2 17.67 -2 17.34 -2 17 C0.97 17 3.94 17 7 17 C6.41089844 16.02417969 5.82179687 15.04835938 5.21484375 14.04296875 C4.45519387 12.75812884 3.69610846 11.47295507 2.9375 10.1875 C2.54755859 9.54490234 2.15761719 8.90230469 1.75585938 8.24023438 C0.75869241 6.5371085 -0.12812687 4.77054142 -1 3 C-0.67 2.01 -0.34 1.02 0 0 Z " fill="#27779A" transform="translate(221,51)"/>
<path d="M0 0 C1.51400391 0.01740234 1.51400391 0.01740234 3.05859375 0.03515625 C4.07050781 0.04417969 5.08242188 0.05320312 6.125 0.0625 C7.29869141 0.07990234 7.29869141 0.07990234 8.49609375 0.09765625 C8.16609375 0.75765625 7.83609375 1.41765625 7.49609375 2.09765625 C5.18203155 2.82841273 2.84780506 3.49903883 0.49609375 4.09765625 C-0.16390625 7.06765625 -0.82390625 10.03765625 -1.50390625 13.09765625 C-3.50390625 11.09765625 -3.50390625 11.09765625 -3.734375 8.75 C-3.72019531 7.85410156 -3.70601563 6.95820312 -3.69140625 6.03515625 C-3.68496094 5.13667969 -3.67851562 4.23820312 -3.671875 3.3125 C-3.43192879 0.14855808 -3.19278745 0.12452369 0 0 Z " fill="#30B1E1" transform="translate(281.50390625,84.90234375)"/>
<path d="M0 0 C2.97 0 5.94 0 9 0 C9 0.66 9 1.32 9 2 C6.69 2 4.38 2 2 2 C1.67 5.63 1.34 9.26 1 13 C0.34 12.67 -0.32 12.34 -1 12 C-1.07329796 7.60212211 -1.07396066 4.29584263 0 0 Z " fill="#43B9EA" transform="translate(52,85)"/>
<path d="M0 0 C0.99 0 1.98 0 3 0 C1.72232235 4.99455809 -0.12911784 7.61297811 -4 11 C-6.40545638 12.20272819 -7.94996953 12.10071472 -10.625 12.0625 C-11.85089844 12.04896484 -11.85089844 12.04896484 -13.1015625 12.03515625 C-14.04128906 12.01775391 -14.04128906 12.01775391 -15 12 C-15 11.67 -15 11.34 -15 11 C-14.40832031 10.91363281 -13.81664062 10.82726563 -13.20703125 10.73828125 C-7.69515397 9.75819214 -4.53291803 8.63695492 -1 4 C-0.13880866 1.82653432 -0.13880866 1.82653432 0 0 Z " fill="#287B97" transform="translate(49,48)"/>
<path d="M0 0 C0.66 0.33 1.32 0.66 2 1 C1.67 2.32 1.34 3.64 1 5 C-0.11375 4.95875 -1.2275 4.9175 -2.375 4.875 C-6.04366025 4.58878141 -6.04366025 4.58878141 -8 7 C-8 6.01 -8 5.02 -8 4 C-8.66 3.67 -9.32 3.34 -10 3 C-8 1 -8 1 -4.4375 0.9375 C-3.303125 0.958125 -2.16875 0.97875 -1 1 C-0.67 0.67 -0.34 0.34 0 0 Z " fill="#22AFE9" transform="translate(21,86)"/>
<path d="M0 0 C0.33 0.99 0.66 1.98 1 3 C0.46890625 3.38671875 -0.0621875 3.7734375 -0.609375 4.171875 C-8.05430068 9.48597433 -8.05430068 9.48597433 -13 17 C-13.33 16.34 -13.66 15.68 -14 15 C-10.82528069 8.12144149 -6.22539951 4.15026634 0 0 Z " fill="#35B6E6" transform="translate(126,371)"/>
<path d="M0 0 C0.99 0.33 1.98 0.66 3 1 C1.8553125 1.7734375 1.8553125 1.7734375 0.6875 2.5625 C-2.52814039 5.47901105 -3.6785547 7.88883685 -5 12 C-4.86358623 14.21858253 -4.86358623 14.21858253 -4 16 C-3.67 16.99 -3.34 17.98 -3 19 C-3.99 19 -4.98 19 -6 19 C-7.20643566 15.38069302 -7.32268559 12.80768995 -7 9 C-5.06939839 5.5382316 -2.94772458 2.65295213 0 0 Z " fill="#1578AC" transform="translate(94,241)"/>
<path d="M0 0 C1.22589844 0.01353516 1.22589844 0.01353516 2.4765625 0.02734375 C3.41628906 0.04474609 3.41628906 0.04474609 4.375 0.0625 C4.375 0.3925 4.375 0.7225 4.375 1.0625 C3.68792969 1.17207031 3.00085938 1.28164062 2.29296875 1.39453125 C1.39191406 1.55308594 0.49085938 1.71164063 -0.4375 1.875 C-1.33082031 2.02582031 -2.22414062 2.17664063 -3.14453125 2.33203125 C-5.9150406 3.14791353 -6.95568187 3.72545461 -8.625 6.0625 C-9.41298055 8.55693774 -9.41298055 8.55693774 -9.8125 11.25 C-9.97105469 12.15105469 -10.12960938 13.05210937 -10.29296875 13.98046875 C-10.45732422 15.01107422 -10.45732422 15.01107422 -10.625 16.0625 C-10.955 16.0625 -11.285 16.0625 -11.625 16.0625 C-11.67906122 14.12530622 -11.71782025 12.18768079 -11.75 10.25 C-11.77320313 9.17105469 -11.79640625 8.09210938 -11.8203125 6.98046875 C-11.625 4.0625 -11.625 4.0625 -9.625 1.0625 C-8.635 1.0625 -7.645 1.0625 -6.625 1.0625 C-4.21954362 -0.14022819 -2.67503047 -0.03821472 0 0 Z " fill="#3CB8EA" transform="translate(174.625,208.9375)"/>
<path d="M0 0 C1.26714844 -0.01417969 2.53429687 -0.02835938 3.83984375 -0.04296875 C7.0625 0.1875 7.0625 0.1875 9.0625 2.1875 C4.1125 2.1875 -0.8375 2.1875 -5.9375 2.1875 C-6.2675 3.8375 -6.5975 5.4875 -6.9375 7.1875 C-7.2675 7.1875 -7.5975 7.1875 -7.9375 7.1875 C-7.98004356 5.18795254 -7.97830783 3.18708364 -7.9375 1.1875 C-6.00408053 -0.74591947 -2.56270879 0.01300867 0 0 Z " fill="#1E7293" transform="translate(263.9375,49.8125)"/>
<path d="M0 0 C0.66 0 1.32 0 2 0 C6.12346276 6.04774539 7.1011656 11.79749803 8 19 C7.34 19.33 6.68 19.66 6 20 C4.32563916 14.6715309 2.91897257 9.51383541 2 4 C1.02651373 1.71519747 1.02651373 1.71519747 0 0 Z " fill="#48BBE9" transform="translate(124,202)"/>
<path d="M0 0 C0.66 0 1.32 0 2 0 C1.87270821 6.11000574 -0.18611487 8.98315433 -4.2109375 13.49609375 C-6 15 -6 15 -9 15 C-4.25 9.125 -4.25 9.125 -2 8 C-1.31527335 6.11235097 -1.31527335 6.11235097 -0.875 3.9375 C-0.70742187 3.20402344 -0.53984375 2.47054688 -0.3671875 1.71484375 C-0.24601563 1.14894531 -0.12484375 0.58304687 0 0 Z " fill="#2DA9DC" transform="translate(188,258)"/>
<path d="M0 0 C6.15234375 0.5859375 6.15234375 0.5859375 8 1 C8.33 1.66 8.66 2.32 9 3 C6.59454362 4.20272819 5.05003047 4.10071472 2.375 4.0625 C1.14910156 4.04896484 1.14910156 4.04896484 -0.1015625 4.03515625 C-1.04128906 4.01775391 -1.04128906 4.01775391 -2 4 C-1.34 2.68 -0.68 1.36 0 0 Z " fill="#2A94B8" transform="translate(154,404)"/>
<path d="M0 0 C1.32 0.33 2.64 0.66 4 1 C4 1.99 4 2.98 4 4 C2 6 2 6 -1.5 6.25 C-5 6 -5 6 -7 4 C-4.36 3.34 -1.72 2.68 1 2 C0.67 1.34 0.34 0.68 0 0 Z " fill="#26ACE7" transform="translate(18,94)"/>
<path d="M0 0 C1.65 0 3.3 0 5 0 C6.25664978 2.90600261 7 4.79604584 7 8 C4.36 7.67 1.72 7.34 -1 7 C-0.67 6.01 -0.34 5.02 0 4 C0 4.66 0 5.32 0 6 C0.99 5.67 1.98 5.34 3 5 C2.2575 4.319375 2.2575 4.319375 1.5 3.625 C0 2 0 2 0 0 Z " fill="#59B5EB" transform="translate(283,90)"/>
<path d="M0 0 C2.33294775 -0.04241723 4.66702567 -0.04092937 7 0 C8 1 8 1 8.09765625 3.28515625 C8.08605469 4.20167969 8.07445312 5.11820313 8.0625 6.0625 C8.05347656 6.98160156 8.04445313 7.90070312 8.03515625 8.84765625 C8.02355469 9.55792969 8.01195312 10.26820312 8 11 C7.34 11 6.68 11 6 11 C6 8.03 6 5.06 6 2 C4.02 2 2.04 2 0 2 C0 1.34 0 0.68 0 0 Z " fill="#337B9A" transform="translate(267,24)"/>
<path d="M0 0 C1.32 0 2.64 0 4 0 C5.47368421 9.57894737 5.47368421 9.57894737 4 14 C2.4375 12.5 2.4375 12.5 1 10 C1.09375 8.0234375 1.09375 8.0234375 1.4375 5.875 C1.623125 4.59625 1.80875 3.3175 2 2 C1.34 1.34 0.68 0.68 0 0 Z " fill="#47BAE9" transform="translate(266,86)"/>
<path d="M0 0 C2.125 0.9375 2.125 0.9375 4 2 C4 2.66 4 3.32 4 4 C2.68 3.67 1.36 3.34 0 3 C0 5.31 0 7.62 0 10 C-0.99 10.495 -0.99 10.495 -2 11 C-2 7.7 -2 4.4 -2 1 C-1.34 0.67 -0.68 0.34 0 0 Z " fill="#47BEE8" transform="translate(32,84)"/>
<path d="M0 0 C1.22589844 0.15275391 1.22589844 0.15275391 2.4765625 0.30859375 C3.41628906 0.43427734 3.41628906 0.43427734 4.375 0.5625 C4.375 1.8825 4.375 3.2025 4.375 4.5625 C4.045 3.9025 3.715 3.2425 3.375 2.5625 C1.456875 2.624375 1.456875 2.624375 -0.5 2.6875 C-2.6796875 2.7578125 -2.6796875 2.7578125 -4.625 2.5625 C-5.285 1.9025 -5.945 1.2425 -6.625 0.5625 C-4.10446405 -0.69776798 -2.7707902 -0.35624445 0 0 Z " fill="#30C2E9" transform="translate(78.625,84.4375)"/>
<path d="M0 0 C0.33 0.66 0.66 1.32 1 2 C1.99 1.67 2.98 1.34 4 1 C4 1.66 4 2.32 4 3 C4.99 3.33 5.98 3.66 7 4 C6.67 6.64 6.34 9.28 6 12 C5.34 12 4.68 12 4 12 C3.67 9.36 3.34 6.72 3 4 C0.525 3.01 0.525 3.01 -2 2 C-1.34 1.34 -0.68 0.68 0 0 Z " fill="#1F9FD6" transform="translate(132,342)"/>
<path d="M0 0 C2.3125 0.125 2.3125 0.125 5 1 C7.36101949 4.66365093 8 6.59781468 8 11 C7.01 10.67 6.02 10.34 5 10 C4.29373761 8.01363702 3.63106429 6.01151741 3 4 C1.48446847 1.69833325 1.48446847 1.69833325 0 0 Z " fill="#196A9A" transform="translate(44,37)"/>
<path d="M0 0 C0.66 1.32 1.32 2.64 2 4 C-4.14285714 9.57142857 -4.14285714 9.57142857 -9 10 C-7.02285327 7.95224088 -5.13285486 6.09489633 -2.8125 4.4375 C-0.70898442 3.0382681 -0.70898442 3.0382681 0 0 Z " fill="#247FAE" transform="translate(181,360)"/>
<path d="M0 0 C0.99 0.33 1.98 0.66 3 1 C2.51917969 1.38800781 2.03835937 1.77601563 1.54296875 2.17578125 C-0.45749498 4.54088647 -0.48876068 6.12691453 -0.6875 9.1875 C-0.75324219 10.08855469 -0.81898437 10.98960937 -0.88671875 11.91796875 C-0.92410156 12.60503906 -0.96148437 13.29210937 -1 14 C-1.33 14 -1.66 14 -2 14 C-2 11.69 -2 9.38 -2 7 C-2.66 7 -3.32 7 -4 7 C-2.92598892 4.08482708 -2.22189824 2.22189824 0 0 Z " fill="#53C0E7" transform="translate(97,291)"/>
<path d="M0 0 C2.97 0 5.94 0 9 0 C9.33 1.32 9.66 2.64 10 4 C9.01 4 8.02 4 7 4 C6.67 3.67 6.34 3.34 6 3 C4.33382885 2.95936168 2.66611905 2.957279 1 3 C0.67 2.01 0.34 1.02 0 0 Z " fill="#3DBDE9" transform="translate(219,94)"/>
<path d="M0 0 C2.97 0 5.94 0 9 0 C9 1.32 9 2.64 9 4 C8.21625 3.95875 7.4325 3.9175 6.625 3.875 C3.83883881 3.71271266 3.83883881 3.71271266 2 6 C2 4.68 2 3.36 2 2 C1.34 1.34 0.68 0.68 0 0 Z " fill="#40BFE9" transform="translate(280,86)"/>
<path d="M0 0 C4.62 0 9.24 0 14 0 C14 0.66 14 1.32 14 2 C11.24921116 2.91692961 9.64051087 3.10886083 6.8125 3.0625 C4.9253125 3.0315625 4.9253125 3.0315625 3 3 C3 2.34 3 1.68 3 1 C2.01 0.67 1.02 0.34 0 0 Z " fill="#1D7393" transform="translate(150,68)"/>
<path d="M0 0 C1.0209375 0.433125 1.0209375 0.433125 2.0625 0.875 C5.32893093 2.12597355 8.62846123 3.07447955 12 4 C11.67 4.66 11.34 5.32 11 6 C3.25531915 5.25531915 3.25531915 5.25531915 0 2 C0 1.34 0 0.68 0 0 Z " fill="#1880A6" transform="translate(90,261)"/>
<path d="M0 0 C3.83032799 0.29464061 6.35234913 0.53045312 9.5 2.8125 C11 5 11 5 10.75 7.25 C10.5025 7.8275 10.255 8.405 10 9 C9.278125 8.05125 8.55625 7.1025 7.8125 6.125 C5.50190102 3.32587438 3.55188548 2.01482442 0 1 C0 0.67 0 0.34 0 0 Z " fill="#7CCEF0" transform="translate(228,157)"/>
<path d="M0 0 C4.85437999 0.45157023 7.49174013 1.59197613 11 5 C11.33 5.99 11.66 6.98 12 8 C9.14940657 6.61964507 6.44119096 5.10703513 3.75 3.4375 C3.04359375 3.00308594 2.3371875 2.56867187 1.609375 2.12109375 C1.07828125 1.75113281 0.5471875 1.38117187 0 1 C0 0.67 0 0.34 0 0 Z " fill="#1E7396" transform="translate(108,26)"/>
<path d="M0 0 C0.33 0.99 0.66 1.98 1 3 C2.65 3 4.3 3 6 3 C6 3.99 6 4.98 6 6 C4.68 6.33 3.36 6.66 2 7 C2 6.34 2 5.68 2 5 C1.34 5 0.68 5 0 5 C-0.33 5.66 -0.66 6.32 -1 7 C-0.67 4.69 -0.34 2.38 0 0 Z " fill="#29BDE8" transform="translate(281,89)"/>
<path d="M0 0 C0.66 0 1.32 0 2 0 C2 0.66 2 1.32 2 2 C2.99 2.33 3.98 2.66 5 3 C4.67 5.64 4.34 8.28 4 11 C3.67 11 3.34 11 3 11 C3.33 8.69 3.66 6.38 4 4 C2.68 4 1.36 4 0 4 C0 2.68 0 1.36 0 0 Z " fill="#22C5ED" transform="translate(143,85)"/>
<path d="M0 0 C0.99 0.33 1.98 0.66 3 1 C1.0373772 3.04795423 -0.4277307 3.94976638 -3.26953125 4.19921875 C-5.51954383 4.18858877 -7.75385562 4.12958525 -10 4 C-10 3.67 -10 3.34 -10 3 C-9.04287109 2.80083984 -9.04287109 2.80083984 -8.06640625 2.59765625 C-7.24011719 2.42105469 -6.41382813 2.24445312 -5.5625 2.0625 C-4.73878906 1.88847656 -3.91507813 1.71445312 -3.06640625 1.53515625 C-1.02338796 1.19247006 -1.02338796 1.19247006 0 0 Z " fill="#2D769F" transform="translate(44,56)"/>
<path d="M0 0 C0.66 0 1.32 0 2 0 C2.33 2.97 2.66 5.94 3 9 C2.01 9 1.02 9 0 9 C0 6.03 0 3.06 0 0 Z " fill="#4BB8E9" transform="translate(240,86)"/>
<path d="M0 0 C4.55737263 0.43820891 7.57653445 0.85041169 11 4 C10.67 4.66 10.34 5.32 10 6 C6.7 4.35 3.4 2.7 0 1 C0 0.67 0 0.34 0 0 Z " fill="#207395" transform="translate(43,26)"/>
<path d="M0 0 C4.455 1.98 4.455 1.98 9 4 C9 4.33 9 4.66 9 5 C2.47692308 4.38461538 2.47692308 4.38461538 0.0625 2.4375 C-0.288125 1.963125 -0.63875 1.48875 -1 1 C-0.67 0.67 -0.34 0.34 0 0 Z " fill="#3DAACE" transform="translate(122,399)"/>
<path d="M0 0 C0 0.66 0 1.32 0 2 C-4.15267176 5.11450382 -4.15267176 5.11450382 -7.3125 4.6875 C-7.869375 4.460625 -8.42625 4.23375 -9 4 C-3.375 0 -3.375 0 0 0 Z " fill="#1E7B9D" transform="translate(133,292)"/>
<path d="M0 0 C0.66 0 1.32 0 2 0 C2 0.99 2 1.98 2 3 C3.32 2.34 4.64 1.68 6 1 C5.67 2.32 5.34 3.64 5 5 C3.35 4.67 1.7 4.34 0 4 C0 2.68 0 1.36 0 0 Z " fill="#3DB6E8" transform="translate(55,88)"/>
<path d="M0 0 C0.33 0 0.66 0 1 0 C1 1.98 1 3.96 1 6 C-1.31 6 -3.62 6 -6 6 C-5.67 5.34 -5.34 4.68 -5 4 C-2.4375 3.375 -2.4375 3.375 0 3 C0 2.01 0 1.02 0 0 Z " fill="#2382AC" transform="translate(141,379)"/>
<path d="M0 0 C-0.6875 1.9375 -0.6875 1.9375 -2 4 C-4.625 4.75 -4.625 4.75 -7 5 C-2.25 0 -2.25 0 0 0 Z " fill="#187697" transform="translate(107,284)"/>
<path d="M0 0 C0.99 0.33 1.98 0.66 3 1 C3 1.99 3 2.98 3 4 C1.68 3.67 0.36 3.34 -1 3 C-1 3.66 -1 4.32 -1 5 C-1.66 4.67 -2.32 4.34 -3 4 C-2.67 3.01 -2.34 2.02 -2 1 C-1.34 0.67 -0.68 0.34 0 0 Z " fill="#32BDE7" transform="translate(120,84)"/>
<path d="M0 0 C3.82097239 0.53069061 6.06171403 1.49701566 9 4 C8.67 4.66 8.34 5.32 8 6 C6.66402348 5.19185349 5.331275 4.37836819 4 3.5625 C3.2575 3.11003906 2.515 2.65757813 1.75 2.19140625 C1.1725 1.79824219 0.595 1.40507812 0 1 C0 0.67 0 0.34 0 0 Z " fill="#1C6F9C" transform="translate(217,26)"/>
</svg>
