<?xml version="1.0" encoding="UTF-8"?>
<svg version="1.1" xmlns="http://www.w3.org/2000/svg" width="301" height="314">
<path d="M0 0 C5.05193836 2.77759829 8.89576799 6.21024611 10.6015625 11.83203125 C11.5778569 18.0630867 10.51592815 22.34581642 6.875 27.4375 C5.32233221 29.25842977 3.75905396 31.07034473 2.1875 32.875 C-1.29389727 37.01131359 -3.43155533 40.05787529 -3.44140625 45.5546875 C-3.1857565 47.62012619 -3.1857565 47.62012619 -1.875 50 C3.61135772 52.86786881 9.00399039 52.19559665 14.86328125 50.6484375 C24.56679987 46.97555499 32.88555969 40.99339953 41.34838867 35.08789062 C49.84459515 29.2057413 57.24305326 24.96460292 67.875 26.4375 C73.68372027 28.07506476 77.39112757 31.34743857 80.7421875 36.30078125 C83.42455289 41.36027735 83.32281494 45.63492473 81.75 51.0625 C79.75774206 56.30576066 77.25044581 60.27617094 72.0625 62.8125 C71.340625 63.01875 70.61875 63.225 69.875 63.4375 C69.875 64.0975 69.875 64.7575 69.875 65.4375 C70.431875 65.664375 70.98875 65.89125 71.5625 66.125 C76.16668583 68.73818655 79.6920461 72.63500142 81.875 77.4375 C83.42973872 83.66841442 83.07273088 88.81687303 79.875 94.4375 C75.85691491 99.19575866 71.87880779 102.2896829 65.6875 103.3125 C53.24587536 104.23334393 41.88044559 95.93304653 32.0625 89.1875 C25.31888535 84.61682785 19.163854 81.33231947 10.875 82.4375 C7.82639887 83.64252816 7.82639887 83.64252816 5.875 86.4375 C4.8872354 89.73694407 4.31138519 93.02457704 3.875 96.4375 C4.40867187 96.57285156 4.94234375 96.70820312 5.4921875 96.84765625 C15.04967123 99.60907456 22.59434712 104.63641187 27.7578125 113.2421875 C31.23063511 120.06640535 31.82918537 126.59278169 29.8125 133.9375 C26.60659106 142.67953873 18.84396983 147.347671 10.875 151.4375 C8.22848404 152.57477503 5.61120315 153.52543228 2.875 154.4375 C1.98070324 159.99000187 1.59159786 165.47427823 1.33984375 171.08984375 C1.29686661 171.98997696 1.25388947 172.89011017 1.20960999 173.81752014 C1.07413314 176.669877 0.94324613 179.52242278 0.8125 182.375 C0.72100711 184.31837371 0.62921335 186.26173328 0.53710938 188.20507812 C0.31292495 192.94906224 0.09285439 197.69322115 -0.125 202.4375 C0.8969043 202.83509521 1.91880859 203.23269043 2.97167969 203.64233398 C4.33016662 204.17669564 5.68856014 204.71129485 7.046875 205.24609375 C7.71831543 205.50660522 8.38975586 205.7671167 9.08154297 206.03552246 C15.4966409 208.57140519 21.42888988 211.45630329 25.875 216.875 C27.70895435 221.57450803 28.25545776 225.01712435 26.9375 229.9375 C22.04016914 239.64548329 9.96681008 245.02006545 0.11328125 248.37890625 C-2.3003785 249.20473694 -4.10975467 249.86560864 -6.125 251.4375 C-7.47864094 254.29191677 -8.34586445 257.00279255 -9.078125 260.07421875 C-9.42359375 260.85410156 -9.7690625 261.63398438 -10.125 262.4375 C-12.734375 263.26953125 -12.734375 263.26953125 -15.125 263.4375 C-16.86771938 261.140279 -18.52411152 258.83883271 -20.125 256.4375 C-24.085 258.4175 -24.085 258.4175 -28.125 260.4375 C-21.85567712 269.13365754 -13.43423376 271.92616477 -3.44604492 274.73852539 C-1.6564562 275.25237618 0.11182066 275.83927844 1.875 276.4375 C2.205 277.0975 2.535 277.7575 2.875 278.4375 C-6.10503992 282.92751996 -21.8891605 279.4457313 -30.9765625 276.63671875 C-37.89383204 274.00197712 -43.01960237 270.65779944 -47.125 264.4375 C-48.4836871 260.0417476 -48.41717746 258.13142147 -46.625 253.875 C-41.28072343 245.79560546 -32.67457183 241.47911577 -24.125 237.4375 C-23.465 237.4375 -22.805 237.4375 -22.125 237.4375 C-22.25777344 236.6640625 -22.39054687 235.890625 -22.52734375 235.09375 C-22.79224609 233.53140625 -22.79224609 233.53140625 -23.0625 231.9375 C-23.32353516 230.40609375 -23.32353516 230.40609375 -23.58984375 228.84375 C-24.18615731 225.04823596 -24.66480008 221.25176959 -25.125 217.4375 C-26.88263672 216.78394531 -26.88263672 216.78394531 -28.67578125 216.1171875 C-44.56802172 210.13219413 -61.21199052 203.70517531 -69.125 187.4375 C-71.20409907 181.20020278 -70.87766996 175.28893444 -68.125 169.3125 C-60.32175199 155.45687126 -44.52809805 147.0706135 -30.125 141.4375 C-29.465 141.4375 -28.805 141.4375 -28.125 141.4375 C-28.29 140.179375 -28.455 138.92125 -28.625 137.625 C-29.23573012 132.2230491 -29.21633564 126.86689662 -29.125 121.4375 C-35.47818847 124.83241686 -41.16453643 128.23432012 -46.375 133.25 C-50.67383382 137.26087366 -53.20428501 139.06158159 -59.125 139.4375 C-63.89280354 138.63891267 -67.1847476 137.3777524 -70.625 133.9375 C-73.17855133 129.68158111 -73.54132906 126.3501829 -73.125 121.4375 C-69.0458374 113.4423413 -61.64345428 108.78991326 -53.875 104.8125 C-53.13354736 104.42715088 -52.39209473 104.04180176 -51.62817383 103.64477539 C-37.5153942 96.4375 -37.5153942 96.4375 -30.125 96.4375 C-30.38120684 94.8309324 -30.65555871 93.2272517 -30.9375 91.625 C-31.08832031 90.73167969 -31.23914063 89.83835937 -31.39453125 88.91796875 C-32.18973447 86.21767975 -32.95190155 85.17269448 -35.125 83.4375 C-38.22611031 81.88694485 -40.68605327 82.18936462 -44.125 82.4375 C-46.78672861 83.48114786 -49.12752207 84.53542949 -51.625 85.875 C-52.65451782 86.40710083 -52.65451782 86.40710083 -53.70483398 86.94995117 C-59.26498595 89.86767986 -64.6683718 93.04434251 -69.98828125 96.37866211 C-77.27005638 100.906196 -84.76688 104.59728736 -93.5234375 103 C-99.68982755 101.19720158 -103.00467433 98.23935892 -106.875 93.125 C-109.18536889 88.15770689 -109.77895209 83.63417661 -108.125 78.4375 C-105.56160968 72.42065327 -100.70028525 67.97093813 -96.125 63.4375 C-96.82625 63.2725 -97.5275 63.1075 -98.25 62.9375 C-102.88043252 60.52162216 -105.80823965 56.0710207 -108.125 51.4375 C-108.87117236 44.50875668 -108.83076721 38.80567906 -104.625 33.05859375 C-101.14091901 29.2932458 -97.1358747 26.77449699 -91.99609375 26.19921875 C-91.19300781 26.17472656 -90.38992187 26.15023437 -89.5625 26.125 C-88.38494141 26.06892578 -88.38494141 26.06892578 -87.18359375 26.01171875 C-78.21297197 27.26050262 -71.01180041 32.22137203 -63.75 37.3125 C-46.95848587 49.08818717 -46.95848587 49.08818717 -27.125 51.4375 C-24.34935155 50.07987846 -24.34935155 50.07987846 -23.125 47.4375 C-22.46011431 42.81195907 -22.9673792 40.19112154 -25.6796875 36.5 C-26.76997192 35.13252462 -27.87734149 33.77852458 -29 32.4375 C-33.95706012 26.43382162 -37.28443221 21.98131789 -37 13.875 C-35.52827668 8.09322983 -33.02562026 4.80906061 -28.0625 1.625 C-20.28724924 -2.98642511 -8.46262656 -3.39084695 0 0 Z M2.875 120.4375 C2.545 123.7375 2.215 127.0375 1.875 130.4375 C5.90878366 129.92769039 5.90878366 129.92769039 7.125 127.375 C7.3725 126.735625 7.62 126.09625 7.875 125.4375 C6.225 123.7875 4.575 122.1375 2.875 120.4375 Z M-35.5 169.625 C-36.36625 170.20604492 -36.36625 170.20604492 -37.25 170.79882812 C-40.83410046 173.27414865 -43.74473031 175.70841081 -46.125 179.4375 C-44.9692468 182.90475961 -44.41347149 183.15540649 -41.37890625 184.91796875 C-40.62416016 185.35947266 -39.86941406 185.80097656 -39.09179688 186.25585938 C-38.29837891 186.70767578 -37.50496094 187.15949219 -36.6875 187.625 C-35.50317383 188.32012695 -35.50317383 188.32012695 -34.29492188 189.02929688 C-30.44703961 191.51904538 -30.44703961 191.51904538 -26.125 192.4375 C-26.455 183.5275 -26.785 174.6175 -27.125 165.4375 C-30.45716546 165.4375 -32.8459613 167.78061848 -35.5 169.625 Z M-2.125 223.4375 C-2.455 225.0875 -2.785 226.7375 -3.125 228.4375 C-1.145 227.7775 0.835 227.1175 2.875 226.4375 C2.545 225.7775 2.215 225.1175 1.875 224.4375 C-0.14963255 223.78536708 -0.14963255 223.78536708 -2.125 223.4375 Z " fill="#6FCAEE" transform="translate(160.125,16.5625)"/>
<path d="M0 0 C3.91743892 0.08225713 7.83347352 0.19495985 11.75 0.3125 C12.84183594 0.33505859 13.93367188 0.35761719 15.05859375 0.38085938 C23.21991596 0.64646454 31.85576346 1.30137481 39.21386719 5.16137695 C39.80329102 5.43812256 40.39271484 5.71486816 41 6 C41.66 5.67 42.32 5.34 43 5 C51.41834849 10.17412328 56.83628009 15.2956475 60.375 24.625 C61.67407842 31.64002346 61.18300606 37.59988424 58 44 C51.99333379 52.1924253 42.41417457 56.86194181 33 60 C32.10570324 65.55250187 31.71659786 71.03677823 31.46484375 76.65234375 C31.42186661 77.55247696 31.37888947 78.45261017 31.33460999 79.38002014 C31.19913314 82.232377 31.06824613 85.08492278 30.9375 87.9375 C30.84600711 89.88087371 30.75421335 91.82423328 30.66210938 93.76757812 C30.43792495 98.51156224 30.21785439 103.25572115 30 108 C31.53285645 108.59639282 31.53285645 108.59639282 33.09667969 109.20483398 C34.45516662 109.73919564 35.81356014 110.27379485 37.171875 110.80859375 C37.84331543 111.06910522 38.51475586 111.3296167 39.20654297 111.59802246 C45.6216409 114.13390519 51.55388988 117.01880329 56 122.4375 C57.83395435 127.13700803 58.38045776 130.57962435 57.0625 135.5 C52.16516914 145.20798329 40.09181008 150.58256545 30.23828125 153.94140625 C27.8246215 154.76723694 26.01524533 155.42810864 24 157 C22.64635906 159.85441677 21.77913555 162.56529255 21.046875 165.63671875 C20.52867187 166.80654297 20.52867187 166.80654297 20 168 C17.390625 168.83203125 17.390625 168.83203125 15 169 C13.25728062 166.702779 11.60088848 164.40133271 10 162 C6.04 163.98 6.04 163.98 2 166 C8.26932288 174.69615754 16.69076624 177.48866477 26.67895508 180.30102539 C28.4685438 180.81487618 30.23682066 181.40177844 32 182 C32.33 182.66 32.66 183.32 33 184 C24.01996008 188.49001996 8.2358395 185.0082313 -0.8515625 182.19921875 C-7.76883204 179.56447712 -12.89460237 176.22029944 -17 170 C-18.3586871 165.6042476 -18.29217746 163.69392147 -16.5 159.4375 C-11.15572343 151.35810546 -2.54957183 147.04161577 6 143 C6.66 143 7.32 143 8 143 C7.80083984 141.83984375 7.80083984 141.83984375 7.59765625 140.65625 C7.42105469 139.6146875 7.24445313 138.573125 7.0625 137.5 C6.88847656 136.4790625 6.71445313 135.458125 6.53515625 134.40625 C5.93884269 130.61073596 5.46019992 126.81426959 5 123 C3.82824219 122.56429687 2.65648437 122.12859375 1.44921875 121.6796875 C-14.44302172 115.69469413 -31.08699052 109.26767531 -39 93 C-41.07909907 86.76270278 -40.75266996 80.85143444 -38 74.875 C-30.19675199 61.01937126 -14.40309805 52.6331135 0 47 C0.66 47 1.32 47 2 47 C1.835 45.741875 1.67 44.48375 1.5 43.1875 C0.88926988 37.7855491 0.90866436 32.42939662 1 27 C-5.35318847 30.39491686 -11.03953643 33.79682012 -16.25 38.8125 C-20.54883382 42.82337366 -23.07928501 44.62408159 -29 45 C-33.76780354 44.20141267 -37.0597476 42.9402524 -40.5 39.5 C-43.05355133 35.24408111 -43.41632906 31.9126829 -43 27 C-38.9208374 19.0048413 -31.51845428 14.35241326 -23.75 10.375 C-23.00854736 9.98965088 -22.26709473 9.60430176 -21.50317383 9.20727539 C-7.3903942 2 -7.3903942 2 0 2 C0 1.34 0 0.68 0 0 Z M33 26 C32.67 29.3 32.34 32.6 32 36 C36.03378366 35.49019039 36.03378366 35.49019039 37.25 32.9375 C37.4975 32.298125 37.745 31.65875 38 31 C36.35 29.35 34.7 27.7 33 26 Z M-5.375 75.1875 C-6.24125 75.76854492 -6.24125 75.76854492 -7.125 76.36132812 C-10.70910046 78.83664865 -13.61973031 81.27091081 -16 85 C-14.8442468 88.46725961 -14.28847149 88.71790649 -11.25390625 90.48046875 C-10.49916016 90.92197266 -9.74441406 91.36347656 -8.96679688 91.81835938 C-8.17337891 92.27017578 -7.37996094 92.72199219 -6.5625 93.1875 C-5.37817383 93.88262695 -5.37817383 93.88262695 -4.16992188 94.59179688 C-0.32203961 97.08154538 -0.32203961 97.08154538 4 98 C3.67 89.09 3.34 80.18 3 71 C-0.33216546 71 -2.7209613 73.34311848 -5.375 75.1875 Z M28 129 C27.67 130.65 27.34 132.3 27 134 C28.98 133.34 30.96 132.68 33 132 C32.67 131.34 32.34 130.68 32 130 C29.97536745 129.34786708 29.97536745 129.34786708 28 129 Z " fill="#32ABDA" transform="translate(130,111)"/>
<path d="M0 0 C3.91743892 0.08225713 7.83347352 0.19495985 11.75 0.3125 C12.84183594 0.33505859 13.93367188 0.35761719 15.05859375 0.38085938 C23.21991596 0.64646454 31.85576346 1.30137481 39.21386719 5.16137695 C39.80329102 5.43812256 40.39271484 5.71486816 41 6 C41.66 5.67 42.32 5.34 43 5 C51.41834849 10.17412328 56.83628009 15.2956475 60.375 24.625 C61.67407842 31.64002346 61.18300606 37.59988424 58 44 C52.88006638 50.98302058 44.23204251 56.47396826 36 59 C33.1875 58.625 33.1875 58.625 31 58 C30.4182243 39.18925234 30.4182243 39.18925234 35.125 33.375 C35.74375 32.92125 36.3625 32.4675 37 32 C35.19642667 28.82227557 33.62113708 26.62113708 31 24 C31.495 28.455 31.495 28.455 32 33 C30.329375 32.505 30.329375 32.505 28.625 32 C19.32958629 29.72091433 10.2913161 31.36892256 1 33 C1 31.02 1 29.04 1 27 C-5.35318847 30.39491686 -11.03953643 33.79682012 -16.25 38.8125 C-20.54883382 42.82337366 -23.07928501 44.62408159 -29 45 C-33.76780354 44.20141267 -37.0597476 42.9402524 -40.5 39.5 C-43.05355133 35.24408111 -43.41632906 31.9126829 -43 27 C-38.9208374 19.0048413 -31.51845428 14.35241326 -23.75 10.375 C-23.00854736 9.98965088 -22.26709473 9.60430176 -21.50317383 9.20727539 C-7.3903942 2 -7.3903942 2 0 2 C0 1.34 0 0.68 0 0 Z " fill="#2C9ECB" transform="translate(130,111)"/>
<path d="M0 0 C1.485 0.495 1.485 0.495 3 1 C2.90912109 1.85996582 2.90912109 1.85996582 2.81640625 2.73730469 C-0.2366665 19.73719488 -0.2366665 19.73719488 2 36 C1.69172074 38.33677544 1.35274364 40.66952205 1 43 C0.75536886 45.99545391 0.61052211 48.99437433 0.46484375 51.99609375 C0.40037804 53.24641136 0.40037804 53.24641136 0.33460999 54.52198792 C0.19925817 57.16035009 0.06830935 59.7989091 -0.0625 62.4375 C-0.15400502 64.23634299 -0.24579899 66.03517132 -0.33789062 67.83398438 C-0.56193561 72.22249362 -0.78203455 76.61118477 -1 81 C-1.66 81 -2.32 81 -3 81 C-3.33 81.99 -3.66 82.98 -4 84 C-4.51385254 83.79318604 -5.02770508 83.58637207 -5.55712891 83.37329102 C-7.91064581 82.4301362 -10.26774319 81.49626607 -12.625 80.5625 C-13.83736328 80.07426758 -13.83736328 80.07426758 -15.07421875 79.57617188 C-15.86699219 79.26357422 -16.65976563 78.95097656 -17.4765625 78.62890625 C-18.19924316 78.34088135 -18.92192383 78.05285645 -19.66650391 77.75610352 C-22.41751271 76.8647168 -25.14240934 76.41875385 -28 76 C-28.00808685 75.36550934 -28.01617371 74.73101868 -28.02450562 74.07730103 C-28.11036183 67.49142936 -28.20985639 60.90586529 -28.31738281 54.3203125 C-28.35573762 51.86040398 -28.39057884 49.40043813 -28.421875 46.94042969 C-28.46738451 43.41059837 -28.52540198 39.88116405 -28.5859375 36.3515625 C-28.59748871 35.24632233 -28.60903992 34.14108215 -28.62094116 33.00234985 C-28.64081085 31.98144257 -28.66068054 30.96053528 -28.68115234 29.90869141 C-28.69447601 29.00712311 -28.70779968 28.10555481 -28.7215271 27.17666626 C-28.80120842 24.79101999 -28.80120842 24.79101999 -31 23 C-30.34 23 -29.68 23 -29 23 C-29.33 18.38 -29.66 13.76 -30 9 C-19.42866623 6.30093606 -10.48020712 4.35471057 0 8 C0 5.36 0 2.72 0 0 Z " fill="#48BCE9" transform="translate(161,135)"/>
<path d="M0 0 C1.80278023 19.70955671 1.80278023 19.70955671 -2.23828125 24.84375 C-5.09661298 26.54559839 -7.90501592 27.7926161 -11 29 C-13.79953883 30.95967718 -16.44958575 32.8991715 -18 36 C-22.80082963 35.23186726 -25.2812806 34.20460411 -28.375 30.375 C-31.82783673 25.33349105 -32 21.03053175 -32 15 C-26.43669837 9.68421815 -19.41870104 5.94606847 -12.625 2.4375 C-11.94759766 2.07889893 -11.27019531 1.72029785 -10.57226562 1.35083008 C-6.51455549 -0.66646313 -4.33752959 -1.11673465 0 0 Z " fill="#126E94" transform="translate(133,160)"/>
<path d="M0 0 C2.62573061 0.64297504 5.25057303 1.28924411 7.875 1.9375 C8.99455078 2.21110352 8.99455078 2.21110352 10.13671875 2.49023438 C15.7734375 3.88671875 15.7734375 3.88671875 18 5 C18.46242355 16.26943326 18.4565507 28.28804559 12 38 C9.625 37.6875 9.625 37.6875 7 37 C4.98415083 33.97622625 4.64432618 32.73647108 4.21875 29.25390625 C4.09886719 28.33416016 3.97898438 27.41441406 3.85546875 26.46679688 C3.73816406 25.50837891 3.62085938 24.54996094 3.5 23.5625 C3.26707909 21.66713811 3.02772883 19.77255274 2.78125 17.87890625 C2.67876953 17.0391626 2.57628906 16.19941895 2.47070312 15.33422852 C1.98548661 12.92802773 1.1308493 11.1628281 0 9 C-0.1953125 6.640625 -0.1953125 6.640625 -0.125 4.25 C-0.10695312 3.45078125 -0.08890625 2.6515625 -0.0703125 1.828125 C-0.04710937 1.22484375 -0.02390625 0.6215625 0 0 Z " fill="#2AB0E5" transform="translate(137,242)"/>
<path d="M0 0 C1.20269531 -0.01417969 2.40539062 -0.02835938 3.64453125 -0.04296875 C8.57799771 0.27795134 11.98827762 1.10819986 15.6875 4.4375 C17.1875 7.1875 17.1875 7.1875 16.9375 10.25 C14.42622127 14.46536073 11.90507659 15.94121484 7.1875 17.1875 C-0.24612704 17.94102256 -6.25160011 18.05357453 -12.8125 14.1875 C-14.75 12.375 -14.75 12.375 -15.8125 10.1875 C-15.8125 7.125 -15.8125 7.125 -14.8125 4.1875 C-10.066593 0.56562361 -5.84694197 0.03113388 0 0 Z " fill="#94D7F2" transform="translate(146.8125,19.8125)"/>
<path d="M0 0 C0 0.66 0 1.32 0 2 C0.66 2.33 1.32 2.66 2 3 C-6.27126485 11.07432997 -17.00322041 15.77680598 -28 19 C-27.85780436 16.79142945 -27.71108153 14.58315013 -27.5625 12.375 C-27.44068359 10.53035156 -27.44068359 10.53035156 -27.31640625 8.6484375 C-27.03336056 5.38467612 -26.58961047 2.22056141 -26 -1 C-25.34 -1 -24.68 -1 -24 -1 C-23.67 -1.99 -23.34 -2.98 -23 -4 C-15.04008289 -8.17895648 -7.19687773 -3.92556967 0 0 Z " fill="#13749A" transform="translate(182,248)"/>
<path d="M0 0 C5.6131052 1.36075278 8.61031425 5.62621194 12 10 C13.98102489 13.96204978 13.54429906 18.69043214 13 23 C11.0625 25.4375 11.0625 25.4375 8 27 C7.28714844 27.37898438 6.57429687 27.75796875 5.83984375 28.1484375 C1.38337203 30.36551358 -1.05748485 31.34874973 -6 30 C-6.5908558 10.89566237 -6.5908558 10.89566237 -1.875 5.625 C-0.946875 4.820625 -0.946875 4.820625 0 4 C0 2.68 0 1.36 0 0 Z " fill="#137399" transform="translate(167,139)"/>
<path d="M0 0 C2.55914724 2.55914724 2.56934885 4.20441649 3.125 7.75 C3.29257813 8.77609375 3.46015625 9.8021875 3.6328125 10.859375 C3.99289478 13.93922772 4.06491813 16.90247797 4 20 C2.39950296 20.39036513 0.79437629 20.76178619 -0.8125 21.125 C-1.70582031 21.33382813 -2.59914062 21.54265625 -3.51953125 21.7578125 C-6 22 -6 22 -9 20 C-9.3984375 17.35546875 -9.3984375 17.35546875 -9.375 14.1875 C-9.38273438 13.14980469 -9.39046875 12.11210937 -9.3984375 11.04296875 C-8.94904457 7.61084039 -8.07182474 5.75277413 -6 3 C-2.8125 1.1875 -2.8125 1.1875 0 0 Z " fill="#14749A" transform="translate(138,253)"/>
<path d="M0 0 C-0.556875 0.2475 -1.11375 0.495 -1.6875 0.75 C-6.95498028 3.46462235 -6.95498028 3.46462235 -9.76171875 8.484375 C-10.25980705 10.98541412 -10.67661443 13.47083524 -11 16 C-8.69 16.66 -6.38 17.32 -4 18 C-4 18.99 -4 19.98 -4 21 C-4.65226562 20.72285156 -5.30453125 20.44570312 -5.9765625 20.16015625 C-6.85054687 19.79792969 -7.72453125 19.43570313 -8.625 19.0625 C-9.48351562 18.70285156 -10.34203125 18.34320313 -11.2265625 17.97265625 C-17.28924202 15.84644893 -23.51601387 15.72959198 -29.875 15.4375 C-30.75414062 15.39431641 -31.63328125 15.35113281 -32.5390625 15.30664062 C-34.69255797 15.20130661 -36.84626064 15.10022351 -39 15 C-39 14.67 -39 14.34 -39 14 C-35.60418484 13.9708456 -32.20840214 13.95314932 -28.8125 13.9375 C-27.85279297 13.92912109 -26.89308594 13.92074219 -25.90429688 13.91210938 C-24.97294922 13.90888672 -24.04160156 13.90566406 -23.08203125 13.90234375 C-22.22843018 13.89710693 -21.3748291 13.89187012 -20.49536133 13.88647461 C-17.90753253 14.00420677 -15.52338047 14.42892956 -13 15 C-12.95101562 14.24074219 -12.90203125 13.48148438 -12.8515625 12.69921875 C-12.77679688 11.70535156 -12.70203125 10.71148437 -12.625 9.6875 C-12.55539063 8.70136719 -12.48578125 7.71523437 -12.4140625 6.69921875 C-12 4 -12 4 -10 1 C-9.01 1 -8.02 1 -7 1 C-4.53721199 -0.231394 -2.7204945 -0.07159196 0 0 Z " fill="#48B6E1" transform="translate(175,97)"/>
<path d="M0 0 C0.66 0.33 1.32 0.66 2 1 C-4.68163901 7.49509579 -4.68163901 7.49509579 -8.9375 9.125 C-13.20639697 8.95075931 -17.23927704 8.08344052 -21 6 C-22.265625 3.88671875 -22.265625 3.88671875 -23 2 C-18.125 3.875 -18.125 3.875 -17 5 C-11.66848484 5.71495414 -7.32829667 5.73046521 -2.875 2.5 C-1.451875 1.2625 -1.451875 1.2625 0 0 Z " fill="#1593B8" transform="translate(113,147)"/>
<path d="M0 0 C0.33 0.99 0.66 1.98 1 3 C0.46890625 3.38671875 -0.0621875 3.7734375 -0.609375 4.171875 C-8.04802658 9.10966434 -8.04802658 9.10966434 -11.75 16.75 C-11.8325 17.8225 -11.915 18.895 -12 20 C-12.66 20 -13.32 20 -14 20 C-13.8845112 13.53262701 -12.37492031 10.43948247 -7.921875 5.765625 C-5.42647618 3.47310413 -2.92214873 1.71052609 0 0 Z " fill="#33B6E5" transform="translate(126,259)"/>
<path d="M0 0 C0.99 0.33 1.98 0.66 3 1 C1.8553125 1.804375 1.8553125 1.804375 0.6875 2.625 C-2.30374725 5.2684278 -3.62786735 7.26475002 -5 11 C-4.72791093 13.92495755 -3.93003312 16.20990064 -3 19 C-3.99 19 -4.98 19 -6 19 C-7.20643566 15.38069302 -7.32268559 12.80768995 -7 9 C-5.06939839 5.5382316 -2.94772458 2.65295213 0 0 Z " fill="#1780AA" transform="translate(94,129)"/>
<path d="M0 0 C0.66 0 1.32 0 2 0 C6.12346276 6.04774539 7.1011656 11.79749803 8 19 C7.34 19.33 6.68 19.66 6 20 C4.32563916 14.6715309 2.91897257 9.51383541 2 4 C1.02651373 1.71519747 1.02651373 1.71519747 0 0 Z " fill="#47BBE8" transform="translate(124,90)"/>
<path d="M0 0 C1.5 1.125 1.5 1.125 3 3 C3.1875 6.1875 3.1875 6.1875 3 9 C-0.38891322 8.31113213 -3.18011613 7.01283514 -6.25 5.4375 C-7.14203125 4.98246094 -8.0340625 4.52742187 -8.953125 4.05859375 C-9.62859375 3.70925781 -10.3040625 3.35992187 -11 3 C-7.73635123 1.93807524 -7.17280159 1.92545814 -3.8125 3.375 C-1 5 -1 5 0 6 C0 4.02 0 2.04 0 0 Z " fill="#51BDE7" transform="translate(184,233)"/>
<path d="M0 0 C-0.8353125 0.37125 -0.8353125 0.37125 -1.6875 0.75 C-6.95498028 3.46462235 -6.95498028 3.46462235 -9.76171875 8.484375 C-10.25980705 10.98541412 -10.67661443 13.47083524 -11 16 C-11.33 16 -11.66 16 -12 16 C-12.05406122 14.06280622 -12.09282025 12.12518079 -12.125 10.1875 C-12.14820313 9.10855469 -12.17140625 8.02960938 -12.1953125 6.91796875 C-12 4 -12 4 -10 1 C-9.01 1 -8.02 1 -7 1 C-4.53721199 -0.231394 -2.7204945 -0.07159196 0 0 Z " fill="#3DB8EA" transform="translate(175,97)"/>
<path d="M0 0 C-3.20322242 2.71340928 -6.26274969 3.93064936 -10.25 5.1875 C-11.32765625 5.53167969 -12.4053125 5.87585938 -13.515625 6.23046875 C-14.74539062 6.61138672 -14.74539062 6.61138672 -16 7 C-16.33 6.34 -16.66 5.68 -17 5 C-14.73392948 3.96724659 -12.46318061 2.94866449 -10.1875 1.9375 C-9.22360352 1.49567383 -9.22360352 1.49567383 -8.24023438 1.04492188 C-3.33984375 -1.11328125 -3.33984375 -1.11328125 0 0 Z " fill="#238BAC" transform="translate(172,259)"/>
<path d="M0 0 C6.15234375 0.5859375 6.15234375 0.5859375 8 1 C8.33 1.66 8.66 2.32 9 3 C6.59454362 4.20272819 5.05003047 4.10071472 2.375 4.0625 C1.14910156 4.04896484 1.14910156 4.04896484 -0.1015625 4.03515625 C-1.04128906 4.01775391 -1.04128906 4.01775391 -2 4 C-1.34 2.68 -0.68 1.36 0 0 Z " fill="#2A93B7" transform="translate(154,292)"/>
<path d="M0 0 C0.33 0.66 0.66 1.32 1 2 C1.66 2.33 2.32 2.66 3 3 C-4.11389522 9.70387244 -4.11389522 9.70387244 -9 10 C-7.02285327 7.95224088 -5.13285486 6.09489633 -2.8125 4.4375 C-0.70898442 3.0382681 -0.70898442 3.0382681 0 0 Z " fill="#237FAE" transform="translate(181,248)"/>
<path d="M0 0 C0.33 0.66 0.66 1.32 1 2 C1.99 1.67 2.98 1.34 4 1 C4 1.66 4 2.32 4 3 C4.99 3.33 5.98 3.66 7 4 C6.67 6.64 6.34 9.28 6 12 C5.34 12 4.68 12 4 12 C3.67 9.36 3.34 6.72 3 4 C0.525 3.01 0.525 3.01 -2 2 C-1.34 1.34 -0.68 0.68 0 0 Z " fill="#1F9ED6" transform="translate(132,230)"/>
<path d="M0 0 C0.99 0.33 1.98 0.66 3 1 C2.51917969 1.38800781 2.03835937 1.77601563 1.54296875 2.17578125 C-0.45749498 4.54088647 -0.48876068 6.12691453 -0.6875 9.1875 C-0.75324219 10.08855469 -0.81898437 10.98960937 -0.88671875 11.91796875 C-0.92410156 12.60503906 -0.96148437 13.29210937 -1 14 C-1.33 14 -1.66 14 -2 14 C-2 11.69 -2 9.38 -2 7 C-2.66 7 -3.32 7 -4 7 C-2.92598892 4.08482708 -2.22189824 2.22189824 0 0 Z " fill="#53C0E7" transform="translate(97,179)"/>
<path d="M0 0 C3.14344966 -0.46001702 5.2444928 -0.48859148 7.95703125 1.265625 C9.75708978 2.77606107 11.45140053 4.23148108 13 6 C13 6.66 13 7.32 13 8 C11.68 7.34 10.36 6.68 9 6 C9 5.34 9 4.68 9 4 C6.03 3.01 3.06 2.02 0 1 C0 0.67 0 0.34 0 0 Z " fill="#8DD3F1" transform="translate(155,17)"/>
<path d="M0 0 C1.0209375 0.433125 1.0209375 0.433125 2.0625 0.875 C5.32893093 2.12597355 8.62846123 3.07447955 12 4 C11.67 4.66 11.34 5.32 11 6 C3.25531915 5.25531915 3.25531915 5.25531915 0 2 C0 1.34 0 0.68 0 0 Z " fill="#187FA5" transform="translate(90,149)"/>
<path d="M0 0 C3.50411265 0.3185557 5.5840105 0.69067447 8.4375 2.8125 C10 5 10 5 9.75 7.25 C9.5025 7.8275 9.255 8.405 9 9 C8.2575 8.071875 7.515 7.14375 6.75 6.1875 C4.70974439 3.72873042 2.67528677 1.78352451 0 0 Z " fill="#7CCEEF" transform="translate(229,45)"/>
<path d="M0 0 C4.95 1.98 4.95 1.98 10 4 C10 4.66 10 5.32 10 6 C6.28111761 5.49287967 3.26545761 4.88391785 0 3 C0 2.01 0 1.02 0 0 Z " fill="#3BA8CD" transform="translate(122,287)"/>
<path d="M0 0 C0.33 0.99 0.66 1.98 1 3 C-1.25 4.5625 -1.25 4.5625 -4 6 C-5.32 5.67 -6.64 5.34 -8 5 C-4.04 2.525 -4.04 2.525 0 0 Z " fill="#1D7B9D" transform="translate(132,179)"/>
<path d="M0 0 C4.455 0.99 4.455 0.99 9 2 C8.67 2.66 8.34 3.32 8 4 C2.25 3.125 2.25 3.125 0 2 C0 1.34 0 0.68 0 0 Z " fill="#2091B9" transform="translate(145,289)"/>
<path d="M0 0 C0.89310101 2.67930304 1.44761501 5.23807505 2 8 C2.33 8.99 2.66 9.98 3 11 C2.01 11 1.02 11 0 11 C-1.16461426 7.50615721 -1.13568319 4.66344611 -1 1 C-0.67 0.67 -0.34 0.34 0 0 Z " fill="#116EAD" transform="translate(88,137)"/>
<path d="M0 0 C0.33 0 0.66 0 1 0 C1 1.98 1 3.96 1 6 C-1.31 6 -3.62 6 -6 6 C-5.67 5.34 -5.34 4.68 -5 4 C-2.4375 3.375 -2.4375 3.375 0 3 C0 2.01 0 1.02 0 0 Z " fill="#2381AC" transform="translate(141,267)"/>
</svg>
